<svg width="61" height="61" viewBox="0 0 61 61" fill="none" xmlns="http://www.w3.org/2000/svg">
<g clip-path="url(#clip0_4174_1407)">
<path fill-rule="evenodd" clip-rule="evenodd" d="M53.2231 19.2845C51.2112 19.2845 49.5823 20.8695 49.5823 22.8244V37.9775C49.5823 39.9323 51.2112 41.5174 53.2231 41.5174C55.2314 41.5174 56.8603 39.9323 56.8603 37.9775V22.8244C56.8603 20.87 55.2314 19.2845 53.2231 19.2845ZM7.12663 19.2845C5.11459 19.2845 3.48572 20.8695 3.48572 22.8244V37.9775C3.48572 39.9323 5.11459 41.5174 7.12663 41.5174C9.13484 41.5174 10.7637 39.9323 10.7637 37.9775V22.8244C10.7637 20.87 9.13484 19.2845 7.12663 19.2845ZM13.4539 19.2845H13.1923V45.2583C13.1923 47.3204 14.9131 48.9993 17.0357 48.9993H19.8069C19.7111 49.3114 19.6596 49.6379 19.6596 49.982V57.4601C19.6596 59.415 21.2923 61 23.3005 61C25.3087 61 26.9414 59.415 26.9414 57.4601V49.9815C26.9414 49.6374 26.8862 49.311 26.7942 48.9989H33.5527C33.4608 49.311 33.4088 49.6374 33.4088 49.9815V57.4596C33.4088 59.4145 35.0377 60.9995 37.0459 60.9995C39.058 60.9995 40.6907 59.4145 40.6907 57.4596V49.9815C40.6907 49.6374 40.6353 49.311 40.5396 48.9989H43.3145C45.4372 48.9989 47.1542 47.3204 47.1542 45.2578V19.2845H13.4539ZM38.5271 5.10686L39.2052 4.1099L39.8834 3.12723L41.394 0.91791C41.5818 0.645319 41.5046 0.279322 41.2244 0.100137C40.948 -0.0828618 40.5687 -0.00756568 40.388 0.265026L38.081 3.62572L37.3886 4.63697C35.1959 3.80871 32.7526 3.34597 30.173 3.34597C27.5972 3.34597 25.15 3.80871 22.9574 4.63697L22.2683 3.62572L21.5863 2.63209L19.9651 0.265026C19.7773 -0.00756568 19.4013 -0.0790494 19.1212 0.100137C18.8447 0.279322 18.7675 0.645319 18.9515 0.91791L20.4622 3.12723L21.1403 4.1099L21.8222 5.10686C16.674 7.44152 13.1918 11.864 13.1918 16.9245H47.1533C47.1537 11.864 43.6715 7.44199 38.5271 5.10686ZM22.895 12.2009C21.889 12.2009 21.0745 11.4084 21.0745 10.4291C21.0745 9.44977 21.889 8.66103 22.895 8.66103C23.901 8.66103 24.7155 9.45021 24.7155 10.4291C24.7155 11.4084 23.901 12.2009 22.895 12.2009ZM37.451 12.2009C36.445 12.2009 35.6305 11.4084 35.6305 10.4291C35.6305 9.44977 36.445 8.66103 37.451 8.66103C38.457 8.66103 39.2715 9.45021 39.2715 10.4291C39.2715 11.4084 38.457 12.2009 37.451 12.2009Z" fill="#95CF00"/>
</g>
<defs>
<clipPath id="clip0_4174_1407">
<rect width="54.0286" height="61" fill="white" transform="translate(3.48572)"/>
</clipPath>
</defs>
</svg>
