<svg width="61" height="61" viewBox="0 0 61 61" fill="none" xmlns="http://www.w3.org/2000/svg">
<path d="M11.8745 32.6445H1.78711C0.800011 32.6445 0 33.4445 0 34.4316V41.5801C0 42.5672 0.800011 43.3672 1.78711 43.3672H11.8745V32.6445Z" fill="#00347B"/>
<path d="M59.2129 32.6445H49.3638V43.3672H59.2129C60.2 43.3672 61 42.5672 61 41.5801V34.4316C61 33.4445 60.2 32.6445 59.2129 32.6445Z" fill="#001737"/>
<path d="M27.5271 20.071C26.8509 20.071 26.2044 19.6857 25.9029 19.0318C25.4896 18.1354 25.8815 17.0739 26.7778 16.6606C27.9343 16.1273 29.2193 15.8457 30.493 15.8457C31.7738 15.8457 33.0141 16.1152 34.1794 16.6471C35.0772 17.0571 35.4727 18.1173 35.0632 19.015C34.6532 19.9132 33.5926 20.3084 32.6953 19.8988C31.999 19.5809 31.2581 19.4195 30.493 19.4195C29.7321 19.4195 28.9647 19.5879 28.274 19.9063C28.0316 20.0184 27.7775 20.071 27.5271 20.071Z" fill="#00EED0"/>
<path d="M38.3065 14.6087C37.9696 14.6087 37.6294 14.5137 37.3268 14.315C35.2917 12.978 32.9284 12.2715 30.493 12.2715C28.0632 12.2715 25.7041 12.9752 23.6708 14.3066C22.8457 14.8474 21.7376 14.6166 21.1968 13.791C20.656 12.9654 20.8868 11.8573 21.7124 11.3165C24.3293 9.60292 27.3656 8.69727 30.493 8.69727C33.6279 8.69727 36.6692 9.60664 39.2889 11.3277C40.1141 11.8694 40.3435 12.9775 39.8018 13.8022C39.4588 14.3248 38.8882 14.6087 38.3065 14.6087Z" fill="#00EED0"/>
<path d="M44.916 52.3027H40.6386C37.695 52.3027 35.1237 50.9894 33.3985 48.6043C32.7269 47.6758 31.6435 47.1215 30.5 47.1215C29.3565 47.1215 28.2731 47.6758 27.6015 48.6043C25.8763 50.9894 23.305 52.3027 20.3614 52.3027H16.084C11.1569 52.3027 7.14844 48.2943 7.14844 43.3672V32.6445C7.14844 27.7174 11.1569 23.709 16.084 23.709H44.916C49.8431 23.709 53.8516 27.7174 53.8516 32.6445V43.3672C53.8516 48.2943 49.8431 52.3027 44.916 52.3027Z" fill="#2680FF"/>
<path d="M44.916 23.709H30.5V47.1215C31.6435 47.1215 32.7269 47.6758 33.3985 48.6038C35.1237 50.9894 37.695 52.3027 40.6386 52.3027H44.916C49.8431 52.3027 53.8516 48.2943 53.8516 43.3672V32.6445C53.8516 27.7174 49.8431 23.709 44.916 23.709Z" fill="#0051BD"/>
<path fill-rule="evenodd" clip-rule="evenodd" d="M13.3391 30.8718C14.3234 30.8718 15.1262 30.069 15.1262 29.0847C15.1262 28.1004 14.3234 27.2976 13.3391 27.2976C12.3548 27.2976 11.552 28.1004 11.552 29.0847C11.552 30.069 12.3548 30.8718 13.3391 30.8718Z" fill="#00EED0"/>
<path fill-rule="evenodd" clip-rule="evenodd" d="M20.4875 30.8718C21.4719 30.8718 22.2747 30.069 22.2747 29.0847C22.2747 28.1004 21.4719 27.2976 20.4875 27.2976C19.5032 27.2976 18.7004 28.1004 18.7004 29.0847C18.7004 30.069 19.5032 30.8718 20.4875 30.8718Z" fill="#FFDA2D"/>
<path fill-rule="evenodd" clip-rule="evenodd" d="M27.636 30.8718C28.6203 30.8718 29.4231 30.069 29.4231 29.0847C29.4231 28.1004 28.6203 27.2976 27.636 27.2976C26.6517 27.2976 25.8489 28.1004 25.8489 29.0847C25.8489 30.069 26.6517 30.8718 27.636 30.8718Z" fill="#FF3C7D"/>
<path d="M34.1794 16.6476C33.0164 16.1166 31.7784 15.8466 30.5 15.8457V19.4199C31.2628 19.4209 32.0009 19.5819 32.6953 19.8988C33.5925 20.3088 34.6532 19.9132 35.0632 19.0155C35.4727 18.1173 35.0771 17.0576 34.1794 16.6476Z" fill="#00CCB2"/>
<path d="M39.2889 11.3277C36.6716 9.60804 33.6321 8.69866 30.5 8.69727V12.2715C32.9331 12.2729 35.2935 12.9793 37.3273 14.315C37.6294 14.5137 37.97 14.6087 38.3065 14.6087C38.8882 14.6087 39.4588 14.3248 39.8018 13.8022C40.3435 12.9775 40.1141 11.8694 39.2889 11.3277Z" fill="#00CCB2"/>
</svg>
