<svg width="68" height="68" viewBox="0 0 68 68" fill="none" xmlns="http://www.w3.org/2000/svg">
<path d="M24.6897 4.9986V1.67057C24.7168 0.277128 26.7866 0.277128 26.8002 1.67057V4.9986C26.7731 6.39204 24.7168 6.39204 24.6897 4.9986ZM4.76215 24.9262H1.43412C0.0406776 24.9532 0.0406776 27.0231 1.43412 27.0366H4.76215C5.34387 27.0366 5.81737 26.5631 5.81737 25.9814C5.81737 25.3997 5.34387 24.9262 4.76215 24.9262ZM41.3298 11.8982L43.6838 9.54419C44.6443 8.54308 43.1833 7.08199 42.1821 8.04252L39.8282 10.3965C38.8676 11.3976 40.3287 12.8587 41.3298 11.8982ZM10.16 11.8982C11.1612 12.8587 12.6222 11.3976 11.6617 10.3965L9.30774 8.04252C8.30663 7.08199 6.84554 8.54308 7.80607 9.54419L10.16 11.8982ZM67.1965 9.61184L57.9023 39.6858C57.74 40.1999 57.2124 40.5111 56.6848 40.4164L50.1911 39.1447L43.0209 45.936C42.2092 48.8852 42.7909 51.1039 44.8067 52.8085C45.6184 53.5797 46.5383 54.459 46.4707 55.8795C46.4166 57.0836 45.7672 57.8276 45.2802 58.3688C43.792 59.7352 45.429 60.6957 46.7954 61.6156C47.8912 62.3326 49.0411 63.0767 48.7976 64.3078C48.5135 65.7283 46.9848 65.7824 44.6579 65.8636C42.6692 65.9312 39.9499 66.0395 36.5407 66.7835C34.1327 67.3517 31.7922 68.0282 29.2894 67.3247C27.9366 66.9729 25.7855 66.1883 24.9873 64.7542H23.3639C21.3076 64.7542 19.63 63.0767 19.63 61.0204V59.3969H18.7507C15.4362 59.4375 13.7586 55.2301 16.1532 52.9844C14.2863 51.3204 14.8274 47.8841 17.1949 46.9236C17.1273 43.9744 15.842 41.1875 13.5557 39.05C2.21878 28.5248 9.22657 9.28715 24.6085 8.28604C32.7122 7.77195 40.0852 12.8046 42.6286 20.3806C49.8123 16.6467 58.5517 12.074 65.7083 8.36721C66.493 7.90724 67.4941 8.75954 67.1965 9.61184ZM19.3053 46.5583H32.171C32.3198 43.4874 33.5103 40.5922 35.5126 38.4277C35.2285 38.0624 33.808 36.1684 33.5509 35.8437L18.5613 32.908C25.7585 29.1741 33.5374 25.1156 40.7211 21.3682C35.1744 4.75508 11.2694 7.85312 10.0518 25.3456C9.84889 29.9317 11.6482 34.3556 14.9897 37.4942C17.6278 39.9564 19.143 43.1627 19.3053 46.5583ZM17.1273 50.3057C17.1273 51.1986 17.8578 51.9292 18.7507 51.9292H32.7122C34.8632 51.9021 34.8361 48.7229 32.7122 48.6823H18.7507C17.8849 48.6553 17.1137 49.4399 17.1273 50.3057ZM32.7257 57.273C34.8632 57.2188 34.8632 54.0802 32.7257 54.0261H18.7507C16.6132 54.0937 16.6267 57.2188 18.7642 57.273H32.7257ZM28.1124 62.6303C29.0053 62.6303 29.7359 61.8997 29.7359 61.0068V59.3834H21.7675V61.0068C21.7675 61.8997 22.4981 62.6303 23.391 62.6303H28.1124ZM40.9375 45.5978L36.8248 40.1593C35.2555 41.9857 34.3626 44.3802 34.295 46.9101C36.5949 47.8571 37.2307 51.2798 35.3232 52.9709C37.7177 55.2166 36.0402 59.424 32.7257 59.3834H31.8463V61.0068C31.8463 63.0091 30.2635 64.6325 28.2748 64.7272C30.7505 65.9854 33.4833 65.4036 36.1078 64.7137C40.5993 63.7396 43.0074 63.8478 46.1054 63.672C43.535 62.1703 41.0593 59.7757 43.7244 56.9618C44.6985 55.8525 44.6443 55.4872 43.3727 54.3237C40.951 52.3215 39.9635 49.1017 40.9375 45.5978ZM50.6916 25.0885L50.421 25.2644L35.6884 35.1402L35.959 35.5055L38.34 38.6577L41.4922 42.838L42.7233 36.5743C44.8202 33.1651 48.4865 28.3895 50.6916 25.0885ZM47.6612 38.6306C47.4448 38.59 44.7255 38.0489 44.6038 38.0218L43.765 42.3104L47.6612 38.6306ZM64.4366 11.4111C59.8775 13.7922 52.3827 17.6884 47.7289 20.11C40.2881 23.9927 32.3604 28.1054 24.8926 32.0016L33.9433 33.7738L54.2226 20.1912C54.5067 20.0153 54.8855 19.9612 55.1966 20.0965C55.8325 20.2994 56.0895 21.1382 55.6972 21.6793C52.3286 26.482 48.9464 31.2846 45.5778 36.0737L45.7672 36.1143L56.1707 38.1706L64.4366 11.4111ZM10.16 40.0782L7.80607 42.4321C7.12964 43.0544 7.64373 44.272 8.55014 44.2314C8.82071 44.2314 9.09128 44.1232 9.29421 43.9203L11.6482 41.5663C12.0676 41.1469 12.0676 40.484 11.6482 40.0646C11.2423 39.6723 10.5659 39.6723 10.16 40.0782Z" fill="url(#paint0_linear_4201_4751)"/>
<defs>
<linearGradient id="paint0_linear_4201_4751" x1="33.8192" y1="0.62575" x2="33.8192" y2="67.6254" gradientUnits="userSpaceOnUse">
<stop stop-color="#5CC6D0"/>
<stop offset="0.490196" stop-color="#A53692"/>
<stop offset="1" stop-color="#F06277"/>
</linearGradient>
</defs>
</svg>
