<svg width="61" height="68" viewBox="0 0 61 68" fill="none" xmlns="http://www.w3.org/2000/svg">
<path d="M52.8826 47.5261C52.9611 47.2312 53.1329 46.9696 53.3723 46.7804C53.6117 46.5912 53.906 46.4845 54.211 46.4763H55.8949C56.1456 46.4763 56.3884 46.3891 56.5819 46.2297C56.7753 46.0703 56.9073 45.8487 56.9553 45.6027C57.2918 43.8902 57.4628 42.1494 57.466 40.4042C57.466 40.2623 57.4381 40.1218 57.3838 39.9907C57.3295 39.8596 57.2499 39.7405 57.1496 39.6402C57.0493 39.5398 56.9302 39.4603 56.7991 39.406C56.668 39.3517 56.5275 39.3238 56.3856 39.3238H45.5814V25.2784C45.5814 25.0436 45.5049 24.8152 45.3634 24.6277C45.222 24.4403 45.0233 24.3041 44.7975 24.2397L38.0185 22.3029V16.6351C38.0186 16.4932 37.9906 16.3527 37.9363 16.2216C37.8821 16.0905 37.8025 15.9714 37.7021 15.8711C37.6018 15.7707 37.4827 15.6911 37.3516 15.6369C37.2205 15.5826 37.08 15.5547 36.9381 15.5547H23.9731C23.8312 15.5547 23.6907 15.5826 23.5596 15.6369C23.4285 15.6911 23.3094 15.7707 23.2091 15.8711C23.1087 15.9714 23.0292 16.0905 22.9749 16.2216C22.9206 16.3527 22.8927 16.4932 22.8927 16.6351V22.3029L16.1137 24.2397C15.8879 24.3041 15.6893 24.4403 15.5478 24.6277C15.4063 24.8152 15.3298 25.0436 15.3298 25.2784V39.3238H4.52567C4.38377 39.3238 4.24326 39.3517 4.11217 39.406C3.98107 39.4603 3.86195 39.5398 3.76162 39.6402C3.66128 39.7405 3.5817 39.8596 3.52742 39.9907C3.47314 40.1218 3.44521 40.2623 3.44525 40.4042C3.44845 42.1494 3.61946 43.8902 3.95592 45.6027C4.00389 45.8487 4.13591 46.0703 4.32935 46.2297C4.5228 46.3891 4.76564 46.4763 5.01628 46.4763H6.70022C7.00527 46.4845 7.29948 46.5912 7.5389 46.7804C7.77832 46.9696 7.9501 47.2312 8.02857 47.5261C8.43407 48.7991 8.94766 50.035 9.56374 51.2205C9.71724 51.4851 9.78098 51.7922 9.74541 52.0961C9.70985 52.3999 9.57689 52.684 9.36643 52.906L8.1689 54.1035C7.99174 54.2808 7.88171 54.5141 7.85765 54.7636C7.83359 55.013 7.897 55.2631 8.03701 55.4709C9.98839 58.3747 12.4853 60.8718 15.3889 62.8233C15.5968 62.9632 15.8469 63.0265 16.0963 63.0024C16.3458 62.9782 16.5791 62.8681 16.7563 62.6909L17.9538 61.4934C18.1768 61.2852 18.4604 61.1537 18.7633 61.1182C19.0663 61.0826 19.3726 61.1447 19.6377 61.2956C20.824 61.9121 22.0609 62.4258 23.3348 62.8313C23.6295 62.9098 23.8908 63.0816 24.0798 63.3209C24.2688 63.5602 24.3754 63.8542 24.3836 64.1591V65.843C24.3836 66.0937 24.4707 66.3365 24.6301 66.5299C24.7895 66.7234 25.0112 66.8554 25.2572 66.9034C28.6893 67.585 32.2219 67.585 35.654 66.9034C35.9 66.8554 36.1217 66.7234 36.2811 66.5299C36.4405 66.3365 36.5276 66.0937 36.5276 65.843V64.1591C36.5358 63.8543 36.6423 63.5602 36.8314 63.3209C37.0204 63.0816 37.2817 62.9098 37.5764 62.8313C38.85 62.426 40.0866 61.9123 41.2724 61.2956C41.5376 61.1446 41.8442 61.0824 42.1473 61.118C42.4505 61.1536 42.7343 61.2851 42.9574 61.4934L44.1549 62.6909C44.3321 62.8681 44.5654 62.9781 44.8148 63.0023C45.0643 63.0265 45.3143 62.9632 45.5223 62.8234C48.4259 60.8718 50.9228 58.3747 52.8742 55.4709C53.0142 55.2631 53.0776 55.013 53.0536 54.7636C53.0295 54.5141 52.9195 54.2808 52.7423 54.1035L51.5448 52.906C51.3344 52.6841 51.2014 52.4001 51.1658 52.0963C51.1303 51.7926 51.194 51.4855 51.3475 51.221C51.9635 50.0353 52.4771 48.7992 52.8826 47.5261ZM38.0185 24.5498L43.4206 26.0935V39.3238H38.0185V24.5498ZM25.0535 17.7155H35.8577V39.3238H33.6969V35.0021C33.6969 34.8603 33.669 34.7197 33.6147 34.5886C33.5604 34.4575 33.4808 34.3384 33.3805 34.2381C33.2802 34.1378 33.161 34.0582 33.0299 34.0039C32.8988 33.9496 32.7583 33.9217 32.6164 33.9217H28.2948C28.1529 33.9217 28.0124 33.9496 27.8813 34.0039C27.7502 34.0582 27.6311 34.1378 27.5307 34.2381C27.4304 34.3384 27.3508 34.4575 27.2965 34.5886C27.2423 34.7197 27.2143 34.8603 27.2144 35.0021V39.3238H25.0535V17.7155ZM31.536 36.0826V39.3238H29.3752V36.0826H31.536ZM17.4906 26.0935L22.8927 24.5498V39.3238H17.4906V26.0935ZM45.3357 41.4846C45.0669 45.2475 43.3824 48.7689 40.6215 51.3396C37.8605 53.9104 34.2281 55.3396 30.4556 55.3396C26.6831 55.3396 23.0507 53.9104 20.2898 51.3396C17.5288 48.7689 15.8443 45.2475 15.5755 41.4846H45.3357ZM50.8231 46.8709C50.455 48.0268 49.9887 49.1491 49.4294 50.2256C49.0659 50.898 48.9269 51.6691 49.0327 52.4261C49.1384 53.1832 49.4833 53.8866 50.0171 54.4338L50.5742 54.9909C49.0341 57.1155 47.1669 58.9826 45.0423 60.5227L44.4852 59.9656C43.9384 59.4307 43.2345 59.0851 42.4769 58.9794C41.7193 58.8738 40.9477 59.0136 40.2754 59.3785C39.1997 59.9382 38.0779 60.4043 36.9223 60.7717C36.191 60.9904 35.5487 61.4369 35.089 62.0463C34.6293 62.6556 34.3763 63.3959 34.3669 64.1591V64.9378C31.7763 65.3577 29.135 65.3577 26.5444 64.9378V64.1591C26.535 63.3959 26.282 62.6556 25.8223 62.0463C25.3626 61.4369 24.7203 60.9904 23.989 60.7717C22.8331 60.4041 21.711 59.938 20.6348 59.3785C19.9626 59.014 19.1913 58.8744 18.4339 58.98C17.6765 59.0857 16.9729 59.4311 16.4261 59.9656L15.869 60.5227C13.7443 58.9826 11.8772 57.1155 10.3371 54.9909L10.8942 54.4338C11.428 53.8865 11.773 53.183 11.8787 52.4259C11.9844 51.6687 11.8454 50.8976 11.4819 50.225C10.9225 49.1488 10.4562 48.0267 10.0882 46.8709C9.86915 46.1397 9.42242 45.4976 8.81306 45.038C8.20369 44.5783 7.46352 44.3252 6.70031 44.3155H5.92156C5.77172 43.378 5.6745 42.4329 5.63035 41.4846H13.4147C13.684 45.8214 15.5965 49.8923 18.7627 52.868C21.9289 55.8437 26.1106 57.5004 30.4557 57.5004C34.8007 57.5004 38.9824 55.8437 42.1486 52.868C45.3148 49.8923 47.2273 45.8214 47.4966 41.4846H55.281C55.2368 42.4329 55.1396 43.378 54.9898 44.3155H54.211C53.4478 44.3252 52.7076 44.5783 52.0983 45.0379C51.4889 45.4976 51.0422 46.1397 50.8231 46.8709Z" fill="black"/>
<path d="M52.8826 47.5261C52.9611 47.2312 53.1329 46.9696 53.3723 46.7804C53.6117 46.5912 53.906 46.4845 54.211 46.4763H55.8949C56.1456 46.4763 56.3884 46.3891 56.5819 46.2297C56.7753 46.0703 56.9073 45.8487 56.9553 45.6027C57.2918 43.8902 57.4628 42.1494 57.466 40.4042C57.466 40.2623 57.4381 40.1218 57.3838 39.9907C57.3295 39.8596 57.2499 39.7405 57.1496 39.6402C57.0493 39.5398 56.9302 39.4603 56.7991 39.406C56.668 39.3517 56.5275 39.3238 56.3856 39.3238H45.5814V25.2784C45.5814 25.0436 45.5049 24.8152 45.3634 24.6277C45.222 24.4403 45.0233 24.3041 44.7975 24.2397L38.0185 22.3029V16.6351C38.0186 16.4932 37.9906 16.3527 37.9363 16.2216C37.8821 16.0905 37.8025 15.9714 37.7021 15.8711C37.6018 15.7707 37.4827 15.6911 37.3516 15.6369C37.2205 15.5826 37.08 15.5547 36.9381 15.5547H23.9731C23.8312 15.5547 23.6907 15.5826 23.5596 15.6369C23.4285 15.6911 23.3094 15.7707 23.2091 15.8711C23.1087 15.9714 23.0292 16.0905 22.9749 16.2216C22.9206 16.3527 22.8927 16.4932 22.8927 16.6351V22.3029L16.1137 24.2397C15.8879 24.3041 15.6893 24.4403 15.5478 24.6277C15.4063 24.8152 15.3298 25.0436 15.3298 25.2784V39.3238H4.52567C4.38377 39.3238 4.24326 39.3517 4.11217 39.406C3.98107 39.4603 3.86195 39.5398 3.76162 39.6402C3.66128 39.7405 3.5817 39.8596 3.52742 39.9907C3.47314 40.1218 3.44521 40.2623 3.44525 40.4042C3.44845 42.1494 3.61946 43.8902 3.95592 45.6027C4.00389 45.8487 4.13591 46.0703 4.32935 46.2297C4.5228 46.3891 4.76564 46.4763 5.01628 46.4763H6.70022C7.00527 46.4845 7.29948 46.5912 7.5389 46.7804C7.77832 46.9696 7.9501 47.2312 8.02857 47.5261C8.43407 48.7991 8.94766 50.035 9.56374 51.2205C9.71724 51.4851 9.78098 51.7922 9.74541 52.0961C9.70985 52.3999 9.57689 52.684 9.36643 52.906L8.1689 54.1035C7.99174 54.2808 7.88171 54.5141 7.85765 54.7636C7.83359 55.013 7.897 55.2631 8.03701 55.4709C9.98839 58.3747 12.4853 60.8718 15.3889 62.8233C15.5968 62.9632 15.8469 63.0265 16.0963 63.0024C16.3458 62.9782 16.5791 62.8681 16.7563 62.6909L17.9538 61.4934C18.1768 61.2852 18.4604 61.1537 18.7633 61.1182C19.0663 61.0826 19.3726 61.1447 19.6377 61.2956C20.824 61.9121 22.0609 62.4258 23.3348 62.8313C23.6295 62.9098 23.8908 63.0816 24.0798 63.3209C24.2688 63.5602 24.3754 63.8542 24.3836 64.1591V65.843C24.3836 66.0937 24.4707 66.3365 24.6301 66.5299C24.7895 66.7234 25.0112 66.8554 25.2572 66.9034C28.6893 67.585 32.2219 67.585 35.654 66.9034C35.9 66.8554 36.1217 66.7234 36.2811 66.5299C36.4405 66.3365 36.5276 66.0937 36.5276 65.843V64.1591C36.5358 63.8543 36.6423 63.5602 36.8314 63.3209C37.0204 63.0816 37.2817 62.9098 37.5764 62.8313C38.85 62.426 40.0866 61.9123 41.2724 61.2956C41.5376 61.1446 41.8442 61.0824 42.1473 61.118C42.4505 61.1536 42.7343 61.2851 42.9574 61.4934L44.1549 62.6909C44.3321 62.8681 44.5654 62.9781 44.8148 63.0023C45.0643 63.0265 45.3143 62.9632 45.5223 62.8234C48.4259 60.8718 50.9228 58.3747 52.8742 55.4709C53.0142 55.2631 53.0776 55.013 53.0536 54.7636C53.0295 54.5141 52.9195 54.2808 52.7423 54.1035L51.5448 52.906C51.3344 52.6841 51.2014 52.4001 51.1658 52.0963C51.1303 51.7926 51.194 51.4855 51.3475 51.221C51.9635 50.0353 52.4771 48.7992 52.8826 47.5261ZM38.0185 24.5498L43.4206 26.0935V39.3238H38.0185V24.5498ZM25.0535 17.7155H35.8577V39.3238H33.6969V35.0021C33.6969 34.8603 33.669 34.7197 33.6147 34.5886C33.5604 34.4575 33.4808 34.3384 33.3805 34.2381C33.2802 34.1378 33.161 34.0582 33.0299 34.0039C32.8988 33.9496 32.7583 33.9217 32.6164 33.9217H28.2948C28.1529 33.9217 28.0124 33.9496 27.8813 34.0039C27.7502 34.0582 27.6311 34.1378 27.5307 34.2381C27.4304 34.3384 27.3508 34.4575 27.2965 34.5886C27.2423 34.7197 27.2143 34.8603 27.2144 35.0021V39.3238H25.0535V17.7155ZM31.536 36.0826V39.3238H29.3752V36.0826H31.536ZM17.4906 26.0935L22.8927 24.5498V39.3238H17.4906V26.0935ZM45.3357 41.4846C45.0669 45.2475 43.3824 48.7689 40.6215 51.3396C37.8605 53.9104 34.2281 55.3396 30.4556 55.3396C26.6831 55.3396 23.0507 53.9104 20.2898 51.3396C17.5288 48.7689 15.8443 45.2475 15.5755 41.4846H45.3357ZM50.8231 46.8709C50.455 48.0268 49.9887 49.1491 49.4294 50.2256C49.0659 50.898 48.9269 51.6691 49.0327 52.4261C49.1384 53.1832 49.4833 53.8866 50.0171 54.4338L50.5742 54.9909C49.0341 57.1155 47.1669 58.9826 45.0423 60.5227L44.4852 59.9656C43.9384 59.4307 43.2345 59.0851 42.4769 58.9794C41.7193 58.8738 40.9477 59.0136 40.2754 59.3785C39.1997 59.9382 38.0779 60.4043 36.9223 60.7717C36.191 60.9904 35.5487 61.4369 35.089 62.0463C34.6293 62.6556 34.3763 63.3959 34.3669 64.1591V64.9378C31.7763 65.3577 29.135 65.3577 26.5444 64.9378V64.1591C26.535 63.3959 26.282 62.6556 25.8223 62.0463C25.3626 61.4369 24.7203 60.9904 23.989 60.7717C22.8331 60.4041 21.711 59.938 20.6348 59.3785C19.9626 59.014 19.1913 58.8744 18.4339 58.98C17.6765 59.0857 16.9729 59.4311 16.4261 59.9656L15.869 60.5227C13.7443 58.9826 11.8772 57.1155 10.3371 54.9909L10.8942 54.4338C11.428 53.8865 11.773 53.183 11.8787 52.4259C11.9844 51.6687 11.8454 50.8976 11.4819 50.225C10.9225 49.1488 10.4562 48.0267 10.0882 46.8709C9.86915 46.1397 9.42242 45.4976 8.81306 45.038C8.20369 44.5783 7.46352 44.3252 6.70031 44.3155H5.92156C5.77172 43.378 5.6745 42.4329 5.63035 41.4846H13.4147C13.684 45.8214 15.5965 49.8923 18.7627 52.868C21.9289 55.8437 26.1106 57.5004 30.4557 57.5004C34.8007 57.5004 38.9824 55.8437 42.1486 52.868C45.3148 49.8923 47.2273 45.8214 47.4966 41.4846H55.281C55.2368 42.4329 55.1396 43.378 54.9898 44.3155H54.211C53.4478 44.3252 52.7076 44.5783 52.0983 45.0379C51.4889 45.4976 51.0422 46.1397 50.8231 46.8709Z" fill="url(#paint0_linear_4201_4729)"/>
<path d="M31.536 14.4739V6.71195C32.2569 6.4571 32.8645 5.95561 33.2514 5.2961C33.6383 4.63659 33.7796 3.86153 33.6504 3.10791C33.5211 2.35429 33.1296 1.67063 32.545 1.17777C31.9604 0.684906 31.2204 0.414574 30.4558 0.414551C29.6911 0.414528 28.9511 0.684816 28.3665 1.17764C27.7819 1.67047 27.3903 2.3541 27.261 3.10772C27.1317 3.86133 27.2729 4.6364 27.6598 5.29593C28.0467 5.95546 28.6543 6.45699 29.3752 6.71188V14.4739H31.536ZM30.4556 2.58938C30.6693 2.58938 30.8781 2.65274 31.0558 2.77146C31.2335 2.89018 31.372 3.05891 31.4537 3.25633C31.5355 3.45375 31.5569 3.67099 31.5152 3.88057C31.4735 4.09015 31.3706 4.28266 31.2195 4.43376C31.0684 4.58486 30.8759 4.68776 30.6664 4.72944C30.4568 4.77113 30.2395 4.74974 30.0421 4.66796C29.8447 4.58619 29.676 4.44771 29.5572 4.27004C29.4385 4.09236 29.3752 3.88348 29.3752 3.66979C29.3754 3.38333 29.4894 3.10869 29.6919 2.90614C29.8945 2.70358 30.1691 2.58966 30.4556 2.58938Z" fill="black"/>
<path d="M31.536 14.4739V6.71195C32.2569 6.4571 32.8645 5.95561 33.2514 5.2961C33.6383 4.63659 33.7796 3.86153 33.6504 3.10791C33.5211 2.35429 33.1296 1.67063 32.545 1.17777C31.9604 0.684906 31.2204 0.414574 30.4558 0.414551C29.6911 0.414528 28.9511 0.684816 28.3665 1.17764C27.7819 1.67047 27.3903 2.3541 27.261 3.10772C27.1317 3.86133 27.2729 4.6364 27.6598 5.29593C28.0467 5.95546 28.6543 6.45699 29.3752 6.71188V14.4739H31.536ZM30.4556 2.58938C30.6693 2.58938 30.8781 2.65274 31.0558 2.77146C31.2335 2.89018 31.372 3.05891 31.4537 3.25633C31.5355 3.45375 31.5569 3.67099 31.5152 3.88057C31.4735 4.09015 31.3706 4.28266 31.2195 4.43376C31.0684 4.58486 30.8759 4.68776 30.6664 4.72944C30.4568 4.77113 30.2395 4.74974 30.0421 4.66796C29.8447 4.58619 29.676 4.44771 29.5572 4.27004C29.4385 4.09236 29.3752 3.88348 29.3752 3.66979C29.3754 3.38333 29.4894 3.10869 29.6919 2.90614C29.8945 2.70358 30.1691 2.58966 30.4556 2.58938Z" fill="url(#paint1_linear_4201_4729)"/>
<path d="M41.2598 14.474V22.0369H43.4206V14.9214L45.2731 13.0688C45.7058 13.2801 46.1804 13.3911 46.6618 13.3936C47.3029 13.3936 47.9296 13.2035 48.4626 12.8474C48.9956 12.4912 49.411 11.985 49.6564 11.3927C49.9017 10.8005 49.9659 10.1488 49.8408 9.52004C49.7157 8.8913 49.407 8.31377 48.9537 7.86047C48.5004 7.40718 47.9229 7.09848 47.2942 6.97341C46.6654 6.84835 46.0137 6.91254 45.4215 7.15786C44.8292 7.40318 44.323 7.81862 43.9668 8.35164C43.6107 8.88466 43.4206 9.51132 43.4206 10.1524C43.4231 10.6338 43.5341 11.1085 43.7454 11.5411L41.5763 13.7102C41.3737 13.9128 41.2598 14.1875 41.2598 14.474ZM46.6618 9.07196C46.8755 9.07196 47.0844 9.13533 47.2621 9.25405C47.4398 9.37276 47.5782 9.5415 47.66 9.73892C47.7418 9.93634 47.7632 10.1536 47.7215 10.3632C47.6798 10.5727 47.5769 10.7652 47.4258 10.9163C47.2747 11.0674 47.0822 11.1703 46.8726 11.212C46.663 11.2537 46.4458 11.2323 46.2484 11.1506C46.051 11.0688 45.8822 10.9303 45.7635 10.7526C45.6448 10.575 45.5814 10.3661 45.5814 10.1524C45.5817 9.86592 45.6956 9.59128 45.8982 9.38872C46.1007 9.18617 46.3754 9.07225 46.6618 9.07196Z" fill="black"/>
<path d="M41.2598 14.474V22.0369H43.4206V14.9214L45.2731 13.0688C45.7058 13.2801 46.1804 13.3911 46.6618 13.3936C47.3029 13.3936 47.9296 13.2035 48.4626 12.8474C48.9956 12.4912 49.411 11.985 49.6564 11.3927C49.9017 10.8005 49.9659 10.1488 49.8408 9.52004C49.7157 8.8913 49.407 8.31377 48.9537 7.86047C48.5004 7.40718 47.9229 7.09848 47.2942 6.97341C46.6654 6.84835 46.0137 6.91254 45.4215 7.15786C44.8292 7.40318 44.323 7.81862 43.9668 8.35164C43.6107 8.88466 43.4206 9.51132 43.4206 10.1524C43.4231 10.6338 43.5341 11.1085 43.7454 11.5411L41.5763 13.7102C41.3737 13.9128 41.2598 14.1875 41.2598 14.474ZM46.6618 9.07196C46.8755 9.07196 47.0844 9.13533 47.2621 9.25405C47.4398 9.37276 47.5782 9.5415 47.66 9.73892C47.7418 9.93634 47.7632 10.1536 47.7215 10.3632C47.6798 10.5727 47.5769 10.7652 47.4258 10.9163C47.2747 11.0674 47.0822 11.1703 46.8726 11.212C46.663 11.2537 46.4458 11.2323 46.2484 11.1506C46.051 11.0688 45.8822 10.9303 45.7635 10.7526C45.6448 10.575 45.5814 10.3661 45.5814 10.1524C45.5817 9.86592 45.6956 9.59128 45.8982 9.38872C46.1007 9.18617 46.3754 9.07225 46.6618 9.07196Z" fill="url(#paint2_linear_4201_4729)"/>
<path d="M14.2494 6.91113C13.3897 6.91113 12.5653 7.25262 11.9575 7.86047C11.3496 8.46832 11.0081 9.29274 11.0081 10.1524C11.0081 11.012 11.3496 11.8364 11.9575 12.4443C12.5653 13.0521 13.3897 13.3936 14.2494 13.3936C14.7308 13.3911 15.2054 13.2801 15.6381 13.0688L17.4906 14.9214V22.0369H19.6514V14.474C19.6514 14.1875 19.5375 13.9128 19.3349 13.7102L17.1658 11.5411C17.377 11.1085 17.4881 10.6338 17.4906 10.1524C17.4897 9.29303 17.1479 8.46915 16.5402 7.86151C15.9326 7.25386 15.1087 6.91207 14.2494 6.91113ZM14.2494 11.2328C14.0357 11.2328 13.8268 11.1694 13.6491 11.0507C13.4714 10.932 13.333 10.7633 13.2512 10.5658C13.1694 10.3684 13.148 10.1512 13.1897 9.9416C13.2314 9.73202 13.3343 9.53951 13.4854 9.38841C13.6365 9.23731 13.829 9.13441 14.0386 9.09272C14.2482 9.05103 14.4654 9.07243 14.6628 9.1542C14.8602 9.23598 15.029 9.37446 15.1477 9.55213C15.2664 9.7298 15.3298 9.93869 15.3298 10.1524C15.3295 10.4388 15.2156 10.7135 15.013 10.916C14.8105 11.1186 14.5358 11.2325 14.2494 11.2328Z" fill="black"/>
<path d="M14.2494 6.91113C13.3897 6.91113 12.5653 7.25262 11.9575 7.86047C11.3496 8.46832 11.0081 9.29274 11.0081 10.1524C11.0081 11.012 11.3496 11.8364 11.9575 12.4443C12.5653 13.0521 13.3897 13.3936 14.2494 13.3936C14.7308 13.3911 15.2054 13.2801 15.6381 13.0688L17.4906 14.9214V22.0369H19.6514V14.474C19.6514 14.1875 19.5375 13.9128 19.3349 13.7102L17.1658 11.5411C17.377 11.1085 17.4881 10.6338 17.4906 10.1524C17.4897 9.29303 17.1479 8.46915 16.5402 7.86151C15.9326 7.25386 15.1087 6.91207 14.2494 6.91113ZM14.2494 11.2328C14.0357 11.2328 13.8268 11.1694 13.6491 11.0507C13.4714 10.932 13.333 10.7633 13.2512 10.5658C13.1694 10.3684 13.148 10.1512 13.1897 9.9416C13.2314 9.73202 13.3343 9.53951 13.4854 9.38841C13.6365 9.23731 13.829 9.13441 14.0386 9.09272C14.2482 9.05103 14.4654 9.07243 14.6628 9.1542C14.8602 9.23598 15.029 9.37446 15.1477 9.55213C15.2664 9.7298 15.3298 9.93869 15.3298 10.1524C15.3295 10.4388 15.2156 10.7135 15.013 10.916C14.8105 11.1186 14.5358 11.2325 14.2494 11.2328Z" fill="url(#paint3_linear_4201_4729)"/>
<path d="M3.44523 18.7959C2.91394 18.7944 2.39043 18.9235 1.92078 19.1719C1.45112 19.4203 1.04973 19.7803 0.751916 20.2203C0.454105 20.6603 0.269014 21.1667 0.212933 21.695C0.156852 22.2233 0.231502 22.7573 0.430311 23.25C0.62912 23.7427 0.945993 24.179 1.35304 24.5204C1.76008 24.8619 2.24482 25.098 2.76458 25.2081C3.28435 25.3181 3.8232 25.2987 4.3337 25.1516C4.84421 25.0045 5.31072 24.7341 5.69218 24.3643L8.8473 25.9452V33.9217H11.0081V25.2784C11.0081 25.078 10.9523 24.8815 10.847 24.7109C10.7418 24.5403 10.5911 24.4024 10.412 24.3125L6.64717 22.4257C6.66821 22.2971 6.68133 22.1673 6.68647 22.0372C6.68553 21.1778 6.34375 20.3539 5.7361 19.7463C5.12845 19.1386 4.30457 18.7968 3.44523 18.7959ZM3.44523 23.1176C3.23154 23.1176 3.02266 23.0542 2.84498 22.9355C2.66731 22.8168 2.52883 22.648 2.44706 22.4506C2.36528 22.2532 2.34389 22.036 2.38557 21.8264C2.42726 21.6168 2.53016 21.4243 2.68126 21.2732C2.83236 21.1221 3.02487 21.0192 3.23445 20.9775C3.44403 20.9358 3.66127 20.9572 3.85869 21.039C4.05611 21.1208 4.22484 21.2592 4.34356 21.4369C4.46228 21.6146 4.52564 21.8235 4.52564 22.0372C4.52536 22.3236 4.41144 22.5983 4.20888 22.8008C4.00633 23.0034 3.73169 23.1173 3.44523 23.1176Z" fill="black"/>
<path d="M3.44523 18.7959C2.91394 18.7944 2.39043 18.9235 1.92078 19.1719C1.45112 19.4203 1.04973 19.7803 0.751916 20.2203C0.454105 20.6603 0.269014 21.1667 0.212933 21.695C0.156852 22.2233 0.231502 22.7573 0.430311 23.25C0.62912 23.7427 0.945993 24.179 1.35304 24.5204C1.76008 24.8619 2.24482 25.098 2.76458 25.2081C3.28435 25.3181 3.8232 25.2987 4.3337 25.1516C4.84421 25.0045 5.31072 24.7341 5.69218 24.3643L8.8473 25.9452V33.9217H11.0081V25.2784C11.0081 25.078 10.9523 24.8815 10.847 24.7109C10.7418 24.5403 10.5911 24.4024 10.412 24.3125L6.64717 22.4257C6.66821 22.2971 6.68133 22.1673 6.68647 22.0372C6.68553 21.1778 6.34375 20.3539 5.7361 19.7463C5.12845 19.1386 4.30457 18.7968 3.44523 18.7959ZM3.44523 23.1176C3.23154 23.1176 3.02266 23.0542 2.84498 22.9355C2.66731 22.8168 2.52883 22.648 2.44706 22.4506C2.36528 22.2532 2.34389 22.036 2.38557 21.8264C2.42726 21.6168 2.53016 21.4243 2.68126 21.2732C2.83236 21.1221 3.02487 21.0192 3.23445 20.9775C3.44403 20.9358 3.66127 20.9572 3.85869 21.039C4.05611 21.1208 4.22484 21.2592 4.34356 21.4369C4.46228 21.6146 4.52564 21.8235 4.52564 22.0372C4.52536 22.3236 4.41144 22.5983 4.20888 22.8008C4.00633 23.0034 3.73169 23.1173 3.44523 23.1176Z" fill="url(#paint4_linear_4201_4729)"/>
<path d="M8.84729 36.0825H11.0081V38.2433H8.84729V36.0825Z" fill="black"/>
<path d="M8.84729 36.0825H11.0081V38.2433H8.84729V36.0825Z" fill="url(#paint5_linear_4201_4729)"/>
<path d="M60.7072 22.0371C60.7072 21.1775 60.3657 20.3531 59.7579 19.7452C59.15 19.1374 58.3256 18.7959 57.466 18.7959C56.6063 18.7959 55.7819 19.1374 55.1741 19.7452C54.5662 20.3531 54.2247 21.1775 54.2247 22.0371C54.2299 22.1673 54.243 22.2971 54.264 22.4257L50.4992 24.3125C50.3201 24.4024 50.1694 24.5403 50.0642 24.7109C49.9589 24.8815 49.9031 25.0779 49.9031 25.2784V33.9217H52.0639V25.9452L55.219 24.3643C55.6755 24.8075 56.2526 25.1063 56.878 25.2232C57.5034 25.3402 58.1495 25.2701 58.7353 25.0217C59.321 24.7733 59.8206 24.3576 60.1713 23.8268C60.5221 23.2959 60.7085 22.6734 60.7072 22.0371ZM56.3856 22.0371C56.3856 21.8235 56.4489 21.6146 56.5676 21.4369C56.6864 21.2592 56.8551 21.1207 57.0525 21.039C57.2499 20.9572 57.4672 20.9358 57.6768 20.9775C57.8863 21.0192 58.0788 21.1221 58.2299 21.2732C58.381 21.4243 58.4839 21.6168 58.5256 21.8264C58.5673 22.0359 58.5459 22.2532 58.4641 22.4506C58.3824 22.648 58.2439 22.8168 58.0662 22.9355C57.8885 23.0542 57.6797 23.1176 57.466 23.1176C57.1795 23.1173 56.9049 23.0033 56.7023 22.8008C56.4998 22.5982 56.3858 22.3236 56.3856 22.0371Z" fill="black"/>
<path d="M60.7072 22.0371C60.7072 21.1775 60.3657 20.3531 59.7579 19.7452C59.15 19.1374 58.3256 18.7959 57.466 18.7959C56.6063 18.7959 55.7819 19.1374 55.1741 19.7452C54.5662 20.3531 54.2247 21.1775 54.2247 22.0371C54.2299 22.1673 54.243 22.2971 54.264 22.4257L50.4992 24.3125C50.3201 24.4024 50.1694 24.5403 50.0642 24.7109C49.9589 24.8815 49.9031 25.0779 49.9031 25.2784V33.9217H52.0639V25.9452L55.219 24.3643C55.6755 24.8075 56.2526 25.1063 56.878 25.2232C57.5034 25.3402 58.1495 25.2701 58.7353 25.0217C59.321 24.7733 59.8206 24.3576 60.1713 23.8268C60.5221 23.2959 60.7085 22.6734 60.7072 22.0371ZM56.3856 22.0371C56.3856 21.8235 56.4489 21.6146 56.5676 21.4369C56.6864 21.2592 56.8551 21.1207 57.0525 21.039C57.2499 20.9572 57.4672 20.9358 57.6768 20.9775C57.8863 21.0192 58.0788 21.1221 58.2299 21.2732C58.381 21.4243 58.4839 21.6168 58.5256 21.8264C58.5673 22.0359 58.5459 22.2532 58.4641 22.4506C58.3824 22.648 58.2439 22.8168 58.0662 22.9355C57.8885 23.0542 57.6797 23.1176 57.466 23.1176C57.1795 23.1173 56.9049 23.0033 56.7023 22.8008C56.4998 22.5982 56.3858 22.3236 56.3856 22.0371Z" fill="url(#paint6_linear_4201_4729)"/>
<path d="M49.9031 36.0825H52.0639V38.2433H49.9031V36.0825Z" fill="black"/>
<path d="M49.9031 36.0825H52.0639V38.2433H49.9031V36.0825Z" fill="url(#paint7_linear_4201_4729)"/>
<path d="M27.2144 20.9565H33.6968V23.1174H27.2144V20.9565Z" fill="black"/>
<path d="M27.2144 20.9565H33.6968V23.1174H27.2144V20.9565Z" fill="url(#paint8_linear_4201_4729)"/>
<path d="M27.2144 25.2783H33.6968V27.4391H27.2144V25.2783Z" fill="black"/>
<path d="M27.2144 25.2783H33.6968V27.4391H27.2144V25.2783Z" fill="url(#paint9_linear_4201_4729)"/>
<path d="M27.2144 29.6001H33.6968V31.7609H27.2144V29.6001Z" fill="black"/>
<path d="M27.2144 29.6001H33.6968V31.7609H27.2144V29.6001Z" fill="url(#paint10_linear_4201_4729)"/>
<path d="M39.0989 27.439H42.3401V29.5998H39.0989V27.439Z" fill="black"/>
<path d="M39.0989 27.439H42.3401V29.5998H39.0989V27.439Z" fill="url(#paint11_linear_4201_4729)"/>
<path d="M39.0989 31.7612H42.3401V33.9221H39.0989V31.7612Z" fill="black"/>
<path d="M39.0989 31.7612H42.3401V33.9221H39.0989V31.7612Z" fill="url(#paint12_linear_4201_4729)"/>
<path d="M18.5711 27.439H21.8123V29.5998H18.5711V27.439Z" fill="black"/>
<path d="M18.5711 27.439H21.8123V29.5998H18.5711V27.439Z" fill="url(#paint13_linear_4201_4729)"/>
<path d="M18.5711 31.7612H21.8123V33.9221H18.5711V31.7612Z" fill="black"/>
<path d="M18.5711 31.7612H21.8123V33.9221H18.5711V31.7612Z" fill="url(#paint14_linear_4201_4729)"/>
<defs>
<linearGradient id="paint0_linear_4201_4729" x1="30.4553" y1="15.5549" x2="30.4553" y2="67.4145" gradientUnits="userSpaceOnUse">
<stop stop-color="#5CC6D0"/>
<stop offset="0.490196" stop-color="#A53692"/>
<stop offset="1" stop-color="#F06277"/>
</linearGradient>
<linearGradient id="paint1_linear_4201_4729" x1="30.4556" y1="0.414606" x2="30.4556" y2="14.4739" gradientUnits="userSpaceOnUse">
<stop stop-color="#5CC6D0"/>
<stop offset="0.490196" stop-color="#A53692"/>
<stop offset="1" stop-color="#F06277"/>
</linearGradient>
<linearGradient id="paint2_linear_4201_4729" x1="45.5814" y1="6.91119" x2="45.5814" y2="22.0369" gradientUnits="userSpaceOnUse">
<stop stop-color="#5CC6D0"/>
<stop offset="0.490196" stop-color="#A53692"/>
<stop offset="1" stop-color="#F06277"/>
</linearGradient>
<linearGradient id="paint3_linear_4201_4729" x1="15.3297" y1="6.91119" x2="15.3297" y2="22.0369" gradientUnits="userSpaceOnUse">
<stop stop-color="#5CC6D0"/>
<stop offset="0.490196" stop-color="#A53692"/>
<stop offset="1" stop-color="#F06277"/>
</linearGradient>
<linearGradient id="paint4_linear_4201_4729" x1="5.60141" y1="18.796" x2="5.60141" y2="33.9217" gradientUnits="userSpaceOnUse">
<stop stop-color="#5CC6D0"/>
<stop offset="0.490196" stop-color="#A53692"/>
<stop offset="1" stop-color="#F06277"/>
</linearGradient>
<linearGradient id="paint5_linear_4201_4729" x1="9.92769" y1="36.0825" x2="9.92769" y2="38.2433" gradientUnits="userSpaceOnUse">
<stop stop-color="#5CC6D0"/>
<stop offset="0.490196" stop-color="#A53692"/>
<stop offset="1" stop-color="#F06277"/>
</linearGradient>
<linearGradient id="paint6_linear_4201_4729" x1="55.3051" y1="18.796" x2="55.3051" y2="33.9217" gradientUnits="userSpaceOnUse">
<stop stop-color="#5CC6D0"/>
<stop offset="0.490196" stop-color="#A53692"/>
<stop offset="1" stop-color="#F06277"/>
</linearGradient>
<linearGradient id="paint7_linear_4201_4729" x1="50.9835" y1="36.0825" x2="50.9835" y2="38.2433" gradientUnits="userSpaceOnUse">
<stop stop-color="#5CC6D0"/>
<stop offset="0.490196" stop-color="#A53692"/>
<stop offset="1" stop-color="#F06277"/>
</linearGradient>
<linearGradient id="paint8_linear_4201_4729" x1="30.4556" y1="20.9566" x2="30.4556" y2="23.1174" gradientUnits="userSpaceOnUse">
<stop stop-color="#5CC6D0"/>
<stop offset="0.490196" stop-color="#A53692"/>
<stop offset="1" stop-color="#F06277"/>
</linearGradient>
<linearGradient id="paint9_linear_4201_4729" x1="30.4556" y1="25.2783" x2="30.4556" y2="27.4391" gradientUnits="userSpaceOnUse">
<stop stop-color="#5CC6D0"/>
<stop offset="0.490196" stop-color="#A53692"/>
<stop offset="1" stop-color="#F06277"/>
</linearGradient>
<linearGradient id="paint10_linear_4201_4729" x1="30.4556" y1="29.6001" x2="30.4556" y2="31.7609" gradientUnits="userSpaceOnUse">
<stop stop-color="#5CC6D0"/>
<stop offset="0.490196" stop-color="#A53692"/>
<stop offset="1" stop-color="#F06277"/>
</linearGradient>
<linearGradient id="paint11_linear_4201_4729" x1="40.7195" y1="27.439" x2="40.7195" y2="29.5998" gradientUnits="userSpaceOnUse">
<stop stop-color="#5CC6D0"/>
<stop offset="0.490196" stop-color="#A53692"/>
<stop offset="1" stop-color="#F06277"/>
</linearGradient>
<linearGradient id="paint12_linear_4201_4729" x1="40.7195" y1="31.7612" x2="40.7195" y2="33.9221" gradientUnits="userSpaceOnUse">
<stop stop-color="#5CC6D0"/>
<stop offset="0.490196" stop-color="#A53692"/>
<stop offset="1" stop-color="#F06277"/>
</linearGradient>
<linearGradient id="paint13_linear_4201_4729" x1="20.1917" y1="27.439" x2="20.1917" y2="29.5998" gradientUnits="userSpaceOnUse">
<stop stop-color="#5CC6D0"/>
<stop offset="0.490196" stop-color="#A53692"/>
<stop offset="1" stop-color="#F06277"/>
</linearGradient>
<linearGradient id="paint14_linear_4201_4729" x1="20.1917" y1="31.7612" x2="20.1917" y2="33.9221" gradientUnits="userSpaceOnUse">
<stop stop-color="#5CC6D0"/>
<stop offset="0.490196" stop-color="#A53692"/>
<stop offset="1" stop-color="#F06277"/>
</linearGradient>
</defs>
</svg>
