<svg width="61" height="61" viewBox="0 0 61 61" fill="none" xmlns="http://www.w3.org/2000/svg">
<g clip-path="url(#clip0_4175_3145)">
<path fill-rule="evenodd" clip-rule="evenodd" d="M10.2923 46.0744C12.2659 46.0892 14.1676 46.8132 15.6481 48.1134C15.7337 48.1885 15.7902 48.291 15.8083 48.4033C15.8263 48.5154 15.8046 48.6304 15.7468 48.7284L11.9817 55.1949C11.698 55.6827 11.314 56.1051 10.8548 56.4345C10.3956 56.7639 9.87163 56.9927 9.31737 57.106C8.76311 57.2192 8.19108 57.2144 7.6388 57.0918C7.08651 56.9692 6.56652 56.7316 6.11298 56.3946C5.32134 55.7799 4.78265 54.898 4.59841 53.9152C4.41417 52.9322 4.59709 51.9161 5.11272 51.0582L7.61479 46.7637C7.71376 46.5905 7.87533 46.4614 8.06664 46.4028C8.78873 46.1868 9.53842 46.0762 10.2923 46.0744ZM35.3926 17.8465C35.4328 17.7759 35.4909 17.7172 35.5611 17.6762C35.6313 17.6352 35.7112 17.6133 35.7926 17.6128C35.874 17.6123 35.954 17.6332 36.0248 17.6733C36.0955 17.7135 36.1543 17.7715 36.1953 17.8415L47.4554 36.9503H56.8144C57.8328 36.9334 58.8216 37.2921 59.5907 37.9575C60.3598 38.6228 60.8549 39.5478 60.9809 40.5548C61.0355 41.11 60.9728 41.6705 60.7969 42.2001C60.621 42.7297 60.3358 43.2168 59.9596 43.6301C59.5834 44.0434 59.1246 44.3736 58.6127 44.5997C58.1007 44.8258 57.547 44.9426 56.987 44.9427H52.1115L55.6692 51.0512C56.1856 51.9083 56.3695 52.9241 56.1863 53.907C56.0031 54.8899 55.4655 55.7721 54.6746 56.3875C54.2211 56.7249 53.7012 56.9628 53.1488 57.0857C52.5966 57.2086 52.0244 57.2137 51.4699 57.1006C50.9155 56.9875 50.3913 56.7587 49.9319 56.4295C49.4725 56.1002 49.0883 55.6777 48.8045 55.19L40.1147 40.2745L33.3161 28.5368C33.258 28.4374 33.2227 28.3265 33.2131 28.2119C33.1775 27.7646 33.1569 27.3152 33.1569 26.8594C33.0868 23.7108 33.8584 20.6002 35.3926 17.8465ZM31.4676 5.80365C31.7486 5.32127 32.1279 4.90281 32.5809 4.57515C33.0339 4.24749 33.5508 4.0179 34.0982 3.90112C34.6456 3.78434 35.2116 3.78296 35.7596 3.89707C36.3076 4.01118 36.8256 4.23826 37.2802 4.5637C38.0924 5.17814 38.6481 6.07002 38.8402 7.06788C39.0323 8.06573 38.8474 9.09913 38.321 9.96937L22.6059 36.951H34.9287C35.1694 36.9479 35.4062 37.0113 35.6129 37.1343C36.6416 37.7748 37.4885 38.6671 38.073 39.726C38.6575 40.7851 38.96 41.9755 38.9518 43.184C38.9503 43.7079 38.8915 44.23 38.7763 44.7411C38.7625 44.8004 38.7288 44.8534 38.6807 44.8912C38.6328 44.9289 38.5733 44.9494 38.512 44.9491H4.01301C3.45303 44.949 2.89926 44.8321 2.38732 44.6061C1.87537 44.38 1.41657 44.0497 1.04041 43.6364C0.664252 43.2232 0.379057 42.7361 0.20316 42.2064C0.0272614 41.6768 -0.0354484 41.1164 0.0190632 40.5612C0.145236 39.5542 0.640415 38.6293 1.40947 37.964C2.17852 37.2987 3.16723 36.9399 4.18564 36.9567H13.3272L25.7516 15.6235L22.3729 9.82004C22.0918 9.33726 21.9152 8.80119 21.8545 8.24632C21.7939 7.69144 21.8505 7.13007 22.0208 6.59833C22.1912 6.06659 22.4713 5.57626 22.8434 5.15892C23.2154 4.74158 23.671 4.40646 24.1809 4.17515C25.1184 3.77835 26.1699 3.74075 27.1335 4.06958C28.0971 4.3984 28.9047 5.07045 29.401 5.95652L30.3913 7.65508L31.4676 5.80365Z" fill="url(#paint0_linear_4175_3145)"/>
</g>
<defs>
<linearGradient id="paint0_linear_4175_3145" x1="30.5" y1="3.8125" x2="30.5" y2="57.1875" gradientUnits="userSpaceOnUse">
<stop stop-color="#19E6FF"/>
<stop offset="1" stop-color="#1E51EE"/>
</linearGradient>
<clipPath id="clip0_4175_3145">
<rect width="61" height="53.375" fill="white" transform="translate(0 3.8125)"/>
</clipPath>
</defs>
</svg>
