<svg width="61" height="61" viewBox="0 0 61 61" fill="none" xmlns="http://www.w3.org/2000/svg">
<path d="M60.5684 34.9933C60.8297 34.8728 60.997 34.6112 60.997 34.3234V26.6742C60.997 26.3864 60.8297 26.1248 60.5684 26.0043L54.8611 23.3694L52.7691 18.3121L54.9393 12.4168C55.0386 12.1468 54.9721 11.8437 54.7687 11.6403L49.3605 6.22862C49.157 6.02496 48.8536 5.95831 48.5834 6.0578L42.6848 8.23132L37.6278 6.13601L34.9965 0.428949C34.8759 0.167497 34.6144 0 34.3264 0H26.6735C26.3858 0 26.1242 0.167251 26.0037 0.42858L23.3686 6.13601L18.3149 8.2312L12.4164 6.05768C12.1464 5.95831 11.8431 6.02472 11.6395 6.22825L6.22786 11.6399C6.02433 11.8434 5.95767 12.1468 6.05728 12.4169L8.23068 18.3119L6.13538 23.3691L0.431509 26.0041C0.170303 26.1247 0.00305176 26.3861 0.00305176 26.6739V34.3232C0.00305176 34.6108 0.170303 34.8724 0.431509 34.993L6.13538 37.628L8.23081 42.6852L6.89809 46.302L1.61382 51.5874C0.575148 52.624 0.00317479 54.0086 0.00317479 55.4862C0.00317479 56.9638 0.574902 58.3488 1.61333 59.3872C2.68853 60.4623 4.1007 60.9998 5.51286 60.9998C6.92514 60.9998 8.33743 60.4621 9.41251 59.3871L14.7028 54.0957L18.3148 52.766L23.3686 54.8613L26.0037 60.5688C26.1242 60.8301 26.3858 60.9973 26.6735 60.9973H34.3264C34.6143 60.9973 34.8758 60.8298 34.9965 60.5684L37.6277 54.8615L41.7711 53.147C42.6384 57.6138 46.5777 60.9973 51.2942 60.9973C56.6443 60.9973 60.9967 56.6448 60.9967 51.2948C60.9967 46.5782 57.6132 42.6389 53.1464 41.7717L54.8609 37.6282L60.5682 34.9933H60.5684ZM30.5 44.9436C28.5379 44.9436 26.6661 44.5497 24.959 43.8378L27.4147 41.3815C28.4179 41.6659 29.4528 41.8099 30.4982 41.8099C36.7351 41.8099 41.8092 36.7358 41.8092 30.4988C41.8092 29.2934 41.6213 28.1083 41.2507 26.9771C41.1708 26.7334 40.9704 26.5487 40.721 26.4891C40.4715 26.4293 40.2093 26.5036 40.0279 26.6847L35.0664 31.643L29.3542 25.9308L34.3153 20.9729C34.4967 20.7916 34.571 20.5292 34.5114 20.2796C34.4519 20.0303 34.2671 19.8295 34.0235 19.7497C32.8847 19.3767 31.6986 19.1877 30.498 19.1877C24.2611 19.1877 19.187 24.2618 19.187 30.4988C19.187 31.5441 19.3308 32.5792 19.6153 33.5825L17.1602 36.0381C16.4488 34.3313 16.0551 32.4603 16.0551 30.4988C16.0551 22.5338 22.5349 16.054 30.4999 16.054C38.4648 16.054 44.9447 22.5338 44.9447 30.4988C44.9447 38.4637 38.4648 44.9436 30.4999 44.9436H30.5Z" fill="#FFC250"/>
<path d="M41.2505 26.9771C41.1707 26.7335 40.9703 26.5487 40.7209 26.4891C40.4713 26.4293 40.2092 26.5036 40.0278 26.6848L35.0663 31.643L29.3541 25.9308L34.3152 20.9729C34.4966 20.7916 34.5708 20.5292 34.5113 20.2797C34.4518 20.0303 34.267 19.8296 34.0233 19.7498C32.8846 19.3768 31.6984 19.1877 30.4979 19.1877C24.2609 19.1877 19.1868 24.2618 19.1868 30.4988C19.1868 31.5441 19.3307 32.5792 19.6152 33.5825L1.6137 51.5877C0.575025 52.6243 0.00305176 54.0089 0.00305176 55.4865C0.00305176 56.964 0.574779 58.349 1.61321 59.3875C2.68841 60.4625 4.10057 61.0001 5.51274 61.0001C6.92502 61.0001 8.33731 60.4624 9.41238 59.3873L27.4146 41.3816C28.4177 41.6659 29.4527 41.8099 30.498 41.8099C36.735 41.8099 41.8091 36.7358 41.8091 30.4988C41.8091 29.2934 41.6212 28.1084 41.2505 26.9771Z" fill="#4A80AA"/>
<path d="M41.2506 26.9771C41.1708 26.7335 40.9704 26.5488 40.721 26.4891C40.607 26.4618 40.4906 26.4638 40.3802 26.4899C40.5129 27.1877 40.5814 27.8993 40.5814 28.6188C40.5814 34.8557 35.5073 39.9298 29.2703 39.9298C28.225 39.9298 27.1899 39.7859 26.1869 39.5015L8.18466 57.5073C7.10946 58.5824 5.69718 59.1199 4.28501 59.12C2.87285 59.12 1.46056 58.5825 0.385487 57.5074C0.383888 57.5058 0.382412 57.5041 0.380814 57.5025C0.65358 58.2016 1.06851 58.8426 1.6133 59.3875C2.68851 60.4626 4.10067 61.0001 5.51283 61.0001C6.92512 61.0001 8.3374 60.4624 9.41248 59.3874L27.4147 41.3816C28.4178 41.6659 29.4528 41.8099 30.4981 41.8099C36.7351 41.8099 41.8092 36.7358 41.8092 30.4989C41.8092 29.2934 41.6213 28.1084 41.2506 26.9771Z" fill="#407093"/>
<path d="M27.8054 24.382L29.3595 25.9361L34.3154 20.9729C34.4968 20.7916 34.5711 20.5292 34.5115 20.2797C34.452 20.0303 34.2672 19.8296 34.0236 19.7498C33.6094 19.6141 33.1887 19.5034 32.7635 19.4167L27.8054 24.3821V24.382Z" fill="#407093"/>
<path d="M30.4981 13.1025C20.9057 13.1025 13.1018 20.9065 13.1018 30.4988C13.1018 33.1954 13.7329 35.8689 14.9305 38.2682L17.1567 36.0416C16.4323 34.2941 16.0533 32.4038 16.0533 30.4988C16.0533 22.5339 22.5331 16.054 30.4981 16.054C38.463 16.054 44.9464 22.5339 44.9464 30.4988C44.9464 38.4638 38.4649 44.9436 30.4981 44.9436C28.5931 44.9436 26.7027 44.565 24.9553 43.8413L22.7289 46.0682C25.128 47.2646 27.8014 47.8951 30.4981 47.8951C40.0924 47.8951 47.8979 40.0912 47.8979 30.4988C47.8979 20.9065 40.0924 13.1025 30.4981 13.1025Z" fill="#F2B149"/>
<path d="M51.2942 60.9973C56.6528 60.9973 60.9967 56.6533 60.9967 51.2948C60.9967 45.9362 56.6528 41.5923 51.2942 41.5923C45.9357 41.5923 41.5917 45.9362 41.5917 51.2948C41.5917 56.6533 45.9357 60.9973 51.2942 60.9973Z" fill="#80B4FB"/>
<path d="M51.2942 41.5923C51.0247 41.5923 50.7587 41.6062 50.4948 41.6278C55.472 42.036 59.398 46.2142 59.398 51.2948C59.398 56.3754 55.4719 60.5536 50.4948 60.9618C50.7587 60.9834 51.0247 60.9973 51.2942 60.9973C56.6442 60.9973 60.9967 56.6447 60.9967 51.2948C60.9967 45.9449 56.6441 41.5923 51.2942 41.5923Z" fill="#61A2F9"/>
<path d="M49.8823 55.4764C49.5043 55.4764 49.1266 55.332 48.8387 55.0441L46.0185 52.2239C45.4422 51.6475 45.4422 50.7132 46.0185 50.1368C46.5949 49.5604 47.5291 49.5604 48.1055 50.1368L49.9036 51.9349L54.5046 47.5204C55.0928 46.9563 56.0268 46.9755 56.5912 47.5636C57.1554 48.1517 57.1361 49.0859 56.548 49.6502L50.9039 55.0654C50.6181 55.3395 50.25 55.4763 49.8822 55.4763L49.8823 55.4764Z" fill="#E4F6FF"/>
<path d="M32.2909 0.429072L34.9222 6.13614L41.2527 8.75902L42.6846 8.23132L37.6276 6.13601L34.9963 0.428949C34.8758 0.167497 34.6142 0 34.3262 0H31.6206C31.9085 0 32.1701 0.167497 32.2907 0.428949L32.2909 0.429072Z" fill="#F2B149"/>
<path d="M60.5683 26.0042L54.861 23.3693L52.769 18.312L54.9392 12.4167C55.0386 12.1467 54.972 11.8436 54.7686 11.6402L49.3604 6.22852C49.1569 6.02487 48.8535 5.95821 48.5833 6.0577L47.0491 6.62304L52.0631 11.6402C52.2664 11.8436 52.3329 12.1467 52.2337 12.4167L50.0635 18.312L52.1554 23.3693L57.8628 26.0042C58.1241 26.1247 58.2913 26.3863 58.2913 26.6741V34.3233C58.2913 34.6111 58.1241 34.8727 57.8628 34.9932L52.1554 37.6281L50.5005 41.6274C50.7626 41.6061 51.0268 41.5922 51.2941 41.5922C51.9276 41.5922 52.5464 41.6552 53.1463 41.7716L54.8609 37.6281L60.5682 34.9932C60.8295 34.8727 60.9967 34.6111 60.9967 34.3233V26.6741C60.9967 26.3863 60.8295 26.1247 60.5682 26.0042H60.5683Z" fill="#F2B149"/>
<path d="M40.7978 52.4302L34.9222 54.8615L32.291 60.5684C32.1705 60.8299 31.9089 60.9974 31.6209 60.9974H34.3264C34.6143 60.9974 34.8759 60.8299 34.9965 60.5684L37.6278 54.8615L41.7711 53.147C41.7355 52.9637 41.7057 52.7782 41.6809 52.5913L40.7978 52.4303V52.4302Z" fill="#F2B149"/>
</svg>
