<svg width="61" height="61" viewBox="0 0 61 61" fill="none" xmlns="http://www.w3.org/2000/svg">
<g clip-path="url(#clip0_4175_3174)">
<path d="M44.8945 37.8801L46.6566 33.4178H51.7451L49.3301 26.648L52.3503 19L61 42H54.6212L53.1426 37.8801H44.8945Z" fill="#3D3D3D"/>
<path d="M39.4522 42L48.7118 19H42.5737L36.239 33.8628L31.7343 19H27.0151L22.1792 33.8628L18.7682 27.0906L15.6813 36.613L18.8159 42H24.8575L29.2276 28.6715L33.3975 42H39.4522Z" fill="#5A0FC8"/>
<path d="M5.82717 34.1039H9.60869C10.6413 34.1184 11.671 33.9895 12.6682 33.7209L13.6464 30.7034L16.3795 22.2704C16.1694 21.9375 15.9302 21.6241 15.6646 21.3338C14.2635 19.7779 12.2111 19 9.50742 19H0V42H5.82717V34.1039ZM10.8311 24.2915C11.3791 24.8436 11.6531 25.5829 11.6531 26.5096C11.6531 27.4362 11.4125 28.1764 10.9312 28.73C10.403 29.3377 9.42998 29.6415 8.01221 29.6415H5.82717V23.4623H8.02889C9.34817 23.4623 10.2826 23.7387 10.8323 24.2915H10.8311Z" fill="#3D3D3D"/>
</g>
<defs>
<clipPath id="clip0_4175_3174">
<rect width="61" height="23" fill="white" transform="translate(0 19)"/>
</clipPath>
</defs>
</svg>
