<svg width="61" height="61" viewBox="0 0 61 61" fill="none" xmlns="http://www.w3.org/2000/svg">
<g clip-path="url(#clip0_4175_3166)">
<path d="M15.0601 39.8925L5.66429 30.4977L36.1685 0H54.9545M54.9573 28.1449H36.1713L29.1314 35.1811L38.5273 44.5758" fill="#42A5F5" fill-opacity="0.8"/>
<path d="M29.1316 53.9642L36.1687 61.0004H54.9546L38.5246 44.5723" fill="#0D47A1"/>
<path d="M19.7569 44.5783L29.136 35.1975L38.5149 44.5754L29.136 53.9561L19.7569 44.5783Z" fill="#42A5F5"/>
<path d="M29.1401 53.9565L38.5191 44.5786L39.8289 45.8882L30.4499 55.2661L29.1401 53.9565Z" fill="url(#paint0_linear_4175_3166)"/>
<path d="M29.1316 53.9648L43.0711 49.1496L38.5274 44.5701" fill="url(#paint1_linear_4175_3166)"/>
</g>
<defs>
<linearGradient id="paint0_linear_4175_3166" x1="33.8297" y1="49.2677" x2="35.1391" y2="50.5771" gradientUnits="userSpaceOnUse">
<stop offset="0.2" stop-opacity="0.15"/>
<stop offset="0.85" stop-color="#616161" stop-opacity="0.01"/>
</linearGradient>
<linearGradient id="paint1_linear_4175_3166" x1="29.1325" y1="49.2684" x2="43.0705" y2="49.2684" gradientUnits="userSpaceOnUse">
<stop offset="0.2" stop-opacity="0.55"/>
<stop offset="0.85" stop-color="#616161" stop-opacity="0.01"/>
</linearGradient>
<clipPath id="clip0_4175_3166">
<rect width="49.6714" height="61" fill="white" transform="translate(5.66429)"/>
</clipPath>
</defs>
</svg>
