<svg width="61" height="61" viewBox="0 0 61 61" fill="none" xmlns="http://www.w3.org/2000/svg">
<g clip-path="url(#clip0_4175_3152)">
<mask id="mask0_4175_3152" style="mask-type:alpha" maskUnits="userSpaceOnUse" x="0" y="3" width="61" height="55">
<path d="M61 3.47461H0V57.5252H61V3.47461Z" fill="#D9D9D9"/>
</mask>
<g mask="url(#mask0_4175_3152)">
<path d="M30.4955 36.2033C33.6347 36.2033 36.1796 33.6617 36.1796 30.5266C36.1796 27.3914 33.6347 24.8499 30.4955 24.8499C27.3563 24.8499 24.8114 27.3914 24.8114 30.5266C24.8114 33.6617 27.3563 36.2033 30.4955 36.2033Z" fill="#61DAFB"/>
<path d="M59.4557 30.5272C59.4557 31.5431 58.9216 32.688 57.5691 33.9073C56.2168 35.1265 54.1733 36.2951 51.5165 37.3082C46.2137 39.3303 38.7837 40.6133 30.5 40.6133C22.2164 40.6133 14.7863 39.3303 9.4835 37.3082C6.82673 36.2951 4.78317 35.1265 3.43092 33.9073C2.07838 32.688 1.54431 31.5431 1.54431 30.5272C1.54431 29.5115 2.07838 28.3665 3.43092 27.1471C4.78317 25.9281 6.82673 24.7594 9.4835 23.7463C14.7863 21.7242 22.2164 20.4412 30.5 20.4412C38.7837 20.4412 46.2137 21.7242 51.5165 23.7463C54.1733 24.7594 56.2168 25.9281 57.5691 27.1471C58.9216 28.3665 59.4557 29.5115 59.4557 30.5272Z" stroke="#61DAFB" stroke-width="4"/>
<path d="M44.9981 55.5504C44.1154 56.0588 42.8541 56.1685 41.12 55.6083C39.386 55.0482 37.35 53.8652 35.142 52.0743C30.735 48.4996 25.9044 42.7166 21.7594 35.5543C17.6144 28.3921 15.0095 21.3271 14.1099 15.7323C13.6592 12.9292 13.6503 10.5787 14.031 8.8005C14.4118 7.0222 15.1377 5.98735 16.0203 5.47898C16.903 4.97061 18.1642 4.8609 19.8983 5.42108C21.6323 5.98122 23.6684 7.16423 25.8763 8.9551C30.2834 12.5297 35.1139 18.3128 39.2589 25.4751C43.4039 32.6372 46.0089 39.7023 46.9085 45.2971C47.3592 48.1001 47.3681 50.4507 46.9873 52.2289C46.6066 54.0072 45.8807 55.042 44.9981 55.5504Z" stroke="#61DAFB" stroke-width="4"/>
<path d="M16.0224 55.5694C15.1399 55.0606 14.4141 54.0252 14.0331 52.246C13.6521 50.4671 13.6604 48.1155 14.1103 45.3114C15.0081 39.7145 17.6104 32.6472 21.752 25.483C25.8936 18.3189 30.7209 12.5345 35.1253 8.95945C37.332 7.16835 39.3669 5.98534 41.1001 5.42538C42.8333 4.86537 44.0942 4.97543 44.9765 5.48421C45.8589 5.993 46.5847 7.02845 46.9658 8.80757C47.3468 10.5866 47.3384 12.9381 46.8886 15.7422C45.9907 21.3391 43.3885 28.4064 39.2468 35.5706C35.1052 42.7348 30.278 48.5191 25.8735 52.0942C23.6669 53.8852 21.632 55.0683 19.8988 55.6282C18.1655 56.1883 16.9047 56.0782 16.0224 55.5694Z" stroke="#61DAFB" stroke-width="4"/>
</g>
</g>
<defs>
<clipPath id="clip0_4175_3152">
<rect width="61" height="54.0506" fill="white" transform="translate(0 3.47461)"/>
</clipPath>
</defs>
</svg>
