<svg width="61" height="61" viewBox="0 0 61 61" fill="none" xmlns="http://www.w3.org/2000/svg">
<path d="M58.5226 39.5423L58.5098 42.5414C58.5098 42.7956 58.3447 43.0497 58.0143 43.2404L27.9596 60.714C27.2861 61.0952 26.1931 61.0952 25.5324 60.714L5.68231 49.2513C5.33916 49.048 5.17395 48.7938 5.17395 48.5396L5.18667 45.6041V45.5405C5.18667 45.546 5.18869 45.5513 5.18884 45.5567C5.17457 45.2933 5.33466 45.0333 5.68231 44.8416L35.7369 27.368C36.3978 26.9867 37.4907 26.9867 38.1642 27.368L58.0143 38.8307C58.3447 39.034 58.5226 39.2882 58.5226 39.5423Z" fill="#DEDFFB"/>
<path d="M58.5216 39.54L58.5143 42.5384C58.507 42.7937 58.3466 43.0488 58.0112 43.2384L27.9554 60.7091C27.2918 61.0955 26.1981 61.0955 25.5272 60.7091L5.67961 49.2467C5.34418 49.0498 5.16919 48.7946 5.17649 48.5394L5.18379 45.541C5.18379 45.7962 5.35148 46.0515 5.68691 46.2483L25.5345 57.7034C26.2127 58.0971 27.2991 58.0898 27.97 57.7034L58.0185 40.24C58.3539 40.0432 58.5216 39.7953 58.5216 39.54Z" fill="#DEDFFB"/>
<path d="M58.0127 38.8305C58.6877 39.2202 58.6866 39.8518 58.0206 40.2389L27.9663 57.7045C27.3003 58.0916 26.2098 58.0943 25.5348 57.7046L5.68875 46.2464C5.01371 45.8567 5.0148 45.2251 5.68082 44.838L35.7351 27.3724C36.4012 26.9853 37.4916 26.9826 38.1666 27.3723L58.0127 38.8305Z" fill="#F3F1FC"/>
<path d="M37.5796 25.0423C37.5796 25.8175 37.0332 26.758 36.3596 27.1519L6.11436 44.6128C5.74585 44.8288 5.41543 44.8288 5.19941 44.6509C5.21213 44.6764 5.2375 44.6891 5.25022 44.7018L2.89925 43.3293C2.68315 43.1895 2.54338 42.9226 2.54338 42.5414L2.47986 19.7303C2.47986 18.9679 3.0263 18.0274 3.69986 17.6335L33.9451 0.172541C34.2882 -0.0307541 34.5933 -0.0434747 34.822 0.0835753L37.1603 1.45607C37.1475 1.44335 37.1349 1.44335 37.1095 1.44335C37.3509 1.55776 37.5034 1.82458 37.5161 2.23125L37.5796 25.0423Z" fill="#1C2841"/>
<path d="M37.1567 1.45542C36.938 1.33144 36.6317 1.34603 36.289 1.54292L6.03628 19.0062C5.36546 19.3927 4.82589 20.3333 4.82589 21.1062L4.89149 43.9142C4.89149 44.3007 5.03004 44.5705 5.24882 44.7017L2.90046 43.326C2.68172 43.1947 2.54318 42.9249 2.54318 42.5385L2.47754 19.7304C2.47754 18.9648 3.02441 18.0242 3.69526 17.6377L33.948 0.167152C34.2834 -0.0297345 34.5897 -0.0443317 34.8157 0.0796125L37.1567 1.45542Z" fill="#4D5C75"/>
<path d="M36.2916 1.54111C36.962 1.15407 37.5085 1.46548 37.5107 2.2358L37.5753 25.0404C37.5775 25.8161 37.0346 26.7618 36.3642 27.1488L6.10866 44.6169C5.43828 45.004 4.89181 44.6872 4.88961 43.9115L4.82496 21.1069C4.82277 20.3366 5.36568 19.3962 6.03606 19.0092L36.2916 1.54111Z" fill="#1C2841"/>
<path d="M36.4824 25.0375C36.4824 25.4236 36.1461 26.0089 35.8223 26.1958L32.5465 28.089L21.2122 34.628L17.8493 36.571L6.51502 43.1225L5.99184 43.4214L5.91711 21.1016C5.91711 20.7279 6.25343 20.1425 6.57728 19.9557L12.7427 16.3935L24.0769 9.85448C40.9994 0.0869305 35.1538 3.46094 36.4202 2.73002L36.445 11.3865L36.4824 25.0375Z" fill="white"/>
<path d="M14.8567 43.8889L10.8315 46.2221L9.61646 45.5214L13.6416 43.1882L14.8567 43.8889Z" fill="#4D5C75"/>
<path d="M20.6932 46.4756L15.9971 49.2037L14.223 48.19L18.9191 45.4543L20.6932 46.4756Z" fill="#4D5C75"/>
<path d="M24.9122 38.0449L23.7046 37.3443L27.7224 35.0037L28.9374 35.7043L24.9122 38.0449Z" fill="#4D5C75"/>
<path d="M27.7746 45.1337L26.0079 44.1051L30.0257 41.772L31.7923 42.7932L27.7746 45.1337Z" fill="#4D5C75"/>
<path d="M30.1077 47.2507L31.8744 48.2794L27.8566 50.6125L26.09 49.5913L30.1077 47.2507Z" fill="#4D5C75"/>
<path d="M40.0888 35.9205L44.1065 33.5874L48.2659 35.9876L39.552 41.049L37.778 40.0278L42.474 37.2996L40.0888 35.9205Z" fill="#4D5C75"/>
<path d="M21.364 46.0881L19.6049 45.0594L22.9443 43.1213L24.7035 44.1425L21.364 46.0881Z" fill="#4D5C75"/>
<path d="M24.2413 47.1838L18.3898 50.5829L16.6157 49.5617L22.4672 46.1626L24.2413 47.1838Z" fill="#4D5C75"/>
<path d="M15.5275 43.494L14.3125 42.7933L18.3303 40.4602L19.5453 41.1609L15.5275 43.494Z" fill="#4D5C75"/>
<path d="M24.9123 46.7961L23.1382 45.7674L25.3223 44.5002L27.0963 45.5214L24.9123 46.7961Z" fill="#4D5C75"/>
<path d="M25.4117 49.979L27.1783 51.0077L23.1606 53.3408L21.3865 52.3271L25.4117 49.979Z" fill="#4D5C75"/>
<path d="M29.6083 35.3168L28.3933 34.6086L32.411 32.283L33.6261 32.9836L29.6083 35.3168Z" fill="#4D5C75"/>
<path d="M32.4706 42.4055L30.6965 41.3843L34.7143 39.0437L36.4884 40.0649L32.4706 42.4055Z" fill="#4D5C75"/>
<path d="M30.1599 46.5055L28.3933 45.4917L32.411 43.1511L34.1777 44.1723L30.1599 46.5055Z" fill="#4D5C75"/>
<path d="M25.2401 39.0139L27.0142 40.0351L22.9964 42.3683L21.2224 41.3471L25.2401 39.0139Z" fill="#4D5C75"/>
<path d="M30.0779 41.0266L28.3113 39.9979L32.3291 37.6648L34.0957 38.686L30.0779 41.0266Z" fill="#4D5C75"/>
<path d="M34.3044 32.5887L33.0968 31.8805L37.1145 29.5474L38.3296 30.2481L34.3044 32.5887Z" fill="#4D5C75"/>
<path d="M35.3107 33.1625L39.3284 30.8293L41.1025 31.8506L37.0847 34.1912L35.3107 33.1625Z" fill="#4D5C75"/>
<path d="M44.1885 39.0737L45.9552 40.0875L32.5452 47.8844L30.7786 46.8632L44.1885 39.0737Z" fill="#4D5C75"/>
<path d="M29.489 46.9005L20.7677 51.9693L19.0011 50.9406L27.7149 45.8718L29.489 46.9005Z" fill="#4D5C75"/>
<path d="M34.6324 33.5576L36.4065 34.5788L32.3887 36.9194L30.6146 35.8908L34.6324 33.5576Z" fill="#4D5C75"/>
<path d="M27.633 40.3931L29.4071 41.4143L25.3893 43.7474L23.6152 42.7262L27.633 40.3931Z" fill="#4D5C75"/>
<path d="M29.9438 36.2859L31.7104 37.3071L27.6927 39.6402L25.9186 38.619L29.9438 36.2859Z" fill="#4D5C75"/>
<path d="M37.0252 34.9365L38.7918 35.9577L34.7741 38.2909L33.0074 37.2697L37.0252 34.9365Z" fill="#4D5C75"/>
<path d="M34.8485 43.7772L33.0894 42.7634L37.1071 40.4229L38.8737 41.4441L34.8485 43.7772Z" fill="#4D5C75"/>
<path d="M37.1668 39.67L35.3927 38.6488L39.4105 36.3157L41.1771 37.3369L37.1668 39.67Z" fill="#4D5C75"/>
<path d="M37.7035 34.5491L41.7213 32.2085L43.4879 33.2297L39.4701 35.5628L37.7035 34.5491Z" fill="#4D5C75"/>
<path d="M17.6296 45.4916L13.6044 47.8322L11.8378 46.8109L15.8555 44.4629L17.6296 45.4916Z" fill="#4D5C75"/>
<path d="M20.5516 41.7346L22.3257 42.7633L18.3004 45.0964L16.5338 44.0752L20.5516 41.7346Z" fill="#4D5C75"/>
<path d="M20.2236 40.7732L19.0011 40.0725L23.0263 37.7319L24.2414 38.4326L20.2236 40.7732Z" fill="#4D5C75"/>
<path d="M50.6587 37.3592L46.6335 39.7073L44.8594 38.6786L48.8846 36.3455L50.6587 37.3592Z" fill="#4D5C75"/>
<path d="M30.5651 32.0669L14.5352 41.2652C14.5352 40.8497 14.2429 40.342 13.8813 40.1342C13.6992 40.0291 13.5325 40.0188 13.4146 40.0881L29.4444 30.8873C29.5624 30.8181 29.7291 30.8283 29.9111 30.9335C30.2727 31.1412 30.5651 31.649 30.5651 32.0669Z" fill="#101C32"/>
<path d="M13.8816 40.1338C14.2435 40.3427 14.5356 40.8506 14.5344 41.2664L13.2229 40.5092C13.2241 40.0934 13.5181 39.924 13.8816 40.1338Z" fill="#4D5C75"/>
<path d="M45.2504 46.0799L36.9306 50.9215L33.2484 48.8069L41.59 43.9653L45.2504 46.0799Z" fill="#DEDFFB"/>
<path d="M18.6346 36.481L24.3748 43.1119L30.1135 36.481H18.6346Z" fill="#FFD014"/>
<path d="M32.3702 22.8261L33.8955 23.6616C33.4741 23.4307 32.9283 23.2945 32.2225 23.3396C32.0398 23.3556 31.5733 23.2495 31.5487 23.2439L30.0234 22.4084C30.048 22.414 30.5145 22.5201 30.6972 22.5041C31.4031 22.4591 31.9488 22.5953 32.3702 22.8261Z" fill="white"/>
<path d="M31.0304 33.29L29.5051 32.4545L30.0235 22.4084L31.5487 23.2439L31.0304 33.29Z" fill="white"/>
<path d="M31.5487 23.6616C31.5733 23.6672 32.0398 23.7733 32.2225 23.7573C34.9964 23.5802 35.2973 26.203 35.3007 26.3651L34.9386 34.2362L31.0304 34.5387L31.5487 23.6616Z" fill="#DF3260"/>
<path d="M16.8101 22.8261L15.2848 23.6616C15.7062 23.4307 16.2519 23.2945 16.9578 23.3396C17.1405 23.3556 17.607 23.2495 17.6316 23.2439L19.1568 22.4084C19.1323 22.414 18.6658 22.5201 18.483 22.5041C17.7772 22.4591 17.2315 22.5953 16.8101 22.8261Z" fill="white"/>
<path d="M18.1499 33.29L19.6752 32.4545L19.1569 22.4084L17.6316 23.2439L18.1499 33.29Z" fill="white"/>
<path d="M17.6316 23.6616C17.607 23.6672 17.1405 23.7733 16.9578 23.7573C14.1839 23.5802 13.883 26.203 13.8796 26.3651L14.2417 34.2362L18.1499 34.5387L17.6316 23.6616Z" fill="#DF3260"/>
<path d="M18.7971 35.0819C18.7844 35.0947 18.7844 35.12 18.7844 35.1327V34.9675C18.7844 35.0057 18.7844 35.0438 18.7971 35.0819Z" fill="#111D33"/>
<path d="M29.9548 35.0565C29.9675 35.1582 29.9675 35.2598 29.9548 35.3615V36.0604C29.9548 36.8864 29.4592 38.4495 28.379 39.0722C26.2059 40.343 22.6731 40.343 20.4745 39.0722C19.3817 38.4368 18.8225 37.6108 18.8352 36.772L18.7971 35.2979C18.7844 35.2344 18.7844 35.1835 18.7844 35.1327C18.7844 35.12 18.7844 35.0946 18.7971 35.0819C18.8352 34.294 19.3817 33.5061 20.411 32.8961C22.5841 31.638 26.1169 31.638 28.3028 32.9088C29.3449 33.5061 29.8913 34.2686 29.9548 35.0565Z" fill="#111D33"/>
<path d="M29.9583 34.9991L29.954 36.0634C29.9517 36.8858 29.4619 38.4496 28.3827 39.0769C26.2052 40.3422 22.6691 40.3422 20.4775 39.0769C19.3766 38.4413 18.8267 37.6068 18.8291 36.7731L18.7826 34.9658C18.7802 35.7995 19.3301 36.634 20.431 37.2696C22.6227 38.5349 26.1587 38.5349 28.3362 37.2696C29.4155 36.6423 29.956 35.8215 29.9583 34.9991Z" fill="#111D33"/>
<path d="M28.341 37.481C26.1565 38.738 22.6173 38.738 20.4327 37.481C18.2481 36.2117 18.2359 34.1614 20.4083 32.8922C22.5806 31.6351 26.1199 31.6351 28.3044 32.9044C30.5012 34.1614 30.5133 36.2117 28.341 37.481Z" fill="#4C5C75"/>
<path d="M30.6875 32.488C29.9584 33.7006 29.491 34.7992 28.545 35.9331L28.5273 35.9428C28.1222 36.3388 27.6483 36.6664 27.122 36.9418C25.5608 37.7384 23.0199 37.7384 21.4813 36.9418C20.9577 36.6832 20.6043 36.3652 20.4453 36.0279C20.3216 35.8705 20.2028 35.7131 20.0839 35.5557C13.4394 26.6834 12.9495 15.2848 18.8825 6.14117C18.9629 6.02232 19.0319 5.91309 19.1122 5.79263V5.78301C20.0566 6.42063 21.1616 6.90729 22.347 7.1755C23.0649 7.33451 23.8182 7.42446 24.5923 7.42446C25.8082 7.42446 26.9662 7.21244 28.0198 6.82699C28.1322 6.78683 28.243 6.74347 28.3522 6.69849C29.0814 6.39975 29.7544 6.01267 30.3695 5.55493H30.3808C30.4611 5.67378 30.5285 5.78301 30.5976 5.90347C35.7019 14.1653 35.6906 24.1859 30.6875 32.488Z" fill="#FFD06C"/>
<path d="M26.5566 30.506C24.8071 33.0157 22.6479 34.6958 20.0839 35.5556C18.3236 33.2043 16.9954 30.6762 16.104 28.0582C13.6305 20.8002 14.522 12.8611 18.8826 6.14112C18.9629 6.02227 19.0319 5.91304 19.1122 5.79259V5.78296C19.8784 6.30013 20.7505 6.71771 21.6852 7.00039C21.9021 7.06625 22.1237 7.12407 22.347 7.17545C23.0649 7.33446 23.8182 7.42441 24.5923 7.42441C25.8082 7.42441 26.9662 7.21239 28.0198 6.82694C31.5019 14.4576 30.9847 23.1564 26.5566 30.506Z" fill="#FFDE9B"/>
<path d="M30.3694 5.55481C29.7542 6.01267 29.0814 6.40025 28.3521 6.69876C27.213 7.16567 25.9369 7.42452 24.5918 7.42452C23.8174 7.42452 23.0652 7.33475 22.3471 7.17541C21.1621 6.90751 20.0571 6.43017 19.1115 5.79348V5.78374C19.4002 5.3565 19.7182 4.92091 20.0592 4.48253C20.4161 4.02259 20.7982 3.56055 21.1983 3.10269C21.7556 2.46253 22.3478 1.8314 22.9511 1.2302C23.4409 0.743119 24.1361 0.514191 24.8201 0.574032C25.3329 0.59421 25.8457 0.793221 26.2444 1.14114C26.9396 1.75208 27.6215 2.36302 28.2568 2.99762C28.6771 3.41721 29.0765 3.84654 29.446 4.29327C29.7807 4.69824 30.091 5.11713 30.3694 5.55481Z" fill="#1D2943"/>
<path d="M29.446 4.29327C29.0967 4.49436 28.7321 4.67388 28.3522 4.82975C27.2131 5.29666 25.9369 5.55481 24.5919 5.55481C23.8174 5.55481 23.0652 5.46574 22.3471 5.3064C21.5392 5.12339 20.7683 4.84297 20.0592 4.48253C20.4162 4.02259 20.7982 3.56055 21.1983 3.10269C21.7556 2.46253 22.3478 1.8314 22.9511 1.2302C23.441 0.743119 24.1361 0.514191 24.8201 0.574032C25.3329 0.59421 25.8458 0.793222 26.2445 1.14114C26.9396 1.75208 27.6215 2.36302 28.2568 2.99762C28.6771 3.41721 29.0765 3.84654 29.446 4.29327Z" fill="#111D33"/>
<path d="M20.3094 36.0476L15.366 40.8767L14.6289 40.4446L14.6416 33.9126C14.6543 33.6965 14.5781 30.4433 18.6065 26.4656C18.7336 26.3386 19.153 25.9827 19.5342 25.6396L20.2713 26.0717L20.3094 36.0476Z" fill="#DF3260"/>
<path d="M20.2755 26.0693C19.8884 26.4079 19.4711 26.7708 19.338 26.8978C15.316 30.8775 15.3947 34.1314 15.3704 34.3431L15.3644 40.8716L14.6309 40.4424L14.6369 33.9141C14.655 33.7023 14.5825 30.4485 18.6045 26.4687C18.7376 26.3417 19.1549 25.9788 19.5359 25.6401L20.2755 26.0693Z" fill="#F45170"/>
<path d="M20.3056 36.0449L15.3643 40.8714L15.3703 34.3429C15.3945 34.1312 15.3159 30.8774 19.3379 26.8976C19.471 26.7706 19.8883 26.4078 20.2754 26.0691L20.3056 36.0449Z" fill="#DF3260"/>
<path d="M34.39 40.2668L33.6529 40.6989L28.7095 35.8699L28.7476 25.8939L29.4846 25.4619C29.8659 25.8051 30.2853 26.1608 30.4123 26.2879C34.4408 30.2655 34.3645 33.5315 34.3772 33.7349L34.39 40.2668Z" fill="#DF3260"/>
<path d="M28.7415 25.8925C29.1285 26.2312 29.5458 26.5941 29.6789 26.721C33.7009 30.7008 33.6223 33.9546 33.6465 34.1664L33.6526 40.6948L34.3861 40.2657L34.38 33.7373C34.3619 33.5256 34.4345 30.2717 30.4124 26.292C30.2794 26.165 29.8621 25.802 29.481 25.4634L28.7415 25.8925Z" fill="#F45170"/>
<path d="M28.7113 35.8684L33.6527 40.6949L33.6466 34.1664C33.6224 33.9547 33.701 30.7008 29.679 26.7211C29.546 26.5941 29.1286 26.2312 28.7416 25.8926L28.7113 35.8684Z" fill="#DF3260"/>
<path d="M28.3115 13.347C28.3115 15.3151 26.7155 16.9111 24.7474 16.9111C22.7786 16.9111 21.1826 15.3151 21.1826 13.347C21.1826 11.3782 22.7786 9.78223 24.7474 9.78223C26.7155 9.78223 28.3115 11.3782 28.3115 13.347Z" fill="#1D2943"/>
<path d="M27.645 13.3468C27.645 14.9503 26.3448 16.2521 24.7413 16.2521C23.1378 16.2521 21.8359 14.9503 21.8359 13.3468C21.8359 11.7416 23.1378 10.4414 24.7413 10.4414C26.3448 10.4414 27.645 11.7416 27.645 13.3468Z" fill="#5094FF"/>
<path d="M55.9048 24.8898V27.0629C55.9048 27.9651 55.3203 28.8547 54.1384 29.5409C51.7746 30.9134 47.9369 30.9134 45.5604 29.5409C44.3659 28.842 43.7686 27.9398 43.7686 27.0375V24.8644C43.7686 23.9621 44.3532 23.0726 45.535 22.3863C47.8987 21.0138 51.7366 21.0011 54.113 22.3736C55.348 23.0828 55.9311 24.0159 55.8954 24.9457C55.8959 24.927 55.9048 24.9086 55.9048 24.8898Z" fill="#C9CEE2"/>
<path d="M55.9101 24.8855L55.9039 27.0691C55.9014 27.9644 55.314 28.8582 54.1407 29.5401C51.7788 30.9127 47.9346 30.9078 45.5572 29.5352C44.3609 28.8445 43.7634 27.9388 43.766 27.0345L43.7722 24.8508C43.7696 25.7552 44.3671 26.6609 45.5634 27.3516C47.9408 28.7241 51.785 28.729 54.1469 27.3565C55.3202 26.6746 55.9076 25.7807 55.9101 24.8855Z" fill="#C9CEE2"/>
<path d="M54.1188 22.3797C56.4961 23.7523 56.5087 25.9839 54.1468 27.3565C51.7849 28.7291 47.9407 28.7242 45.5633 27.3516C43.186 25.979 43.1735 23.7573 45.5353 22.3847C47.8972 21.0121 51.7414 21.0072 54.1188 22.3797Z" fill="#E3E7F0"/>
<path d="M53.7953 9.08105L51.2156 7.60694C50.2879 7.07314 49.0171 7.14939 47.6065 7.96273C44.8107 9.57668 42.5486 13.4781 42.5613 16.6932C42.5741 19.9084 47.4031 24.28 47.6573 24.5087L50.4531 26.0972C50.6946 25.5761 55.4855 15.6511 55.4728 12.4487C55.4728 10.7331 54.8247 9.56396 53.7953 9.08105ZM47.6319 17.1761C47.5302 17.2396 47.4158 17.2905 47.3142 17.3413C47.2888 17.227 47.2888 17.1126 47.2888 16.9855C47.2761 14.9903 48.6739 12.5758 50.4023 11.5719C50.5166 11.5083 50.631 11.4447 50.7454 11.3939C50.7454 11.5083 50.7581 11.6354 50.7581 11.7752C50.7581 13.7576 49.3729 16.1849 47.6319 17.1761Z" fill="#5EC363"/>
<path d="M52.6318 11.3554L49.8422 9.7583C50.4053 10.0855 50.7543 10.7824 50.7571 11.7731C50.7628 13.7586 49.3668 16.1796 47.6362 17.1788C46.7667 17.6808 45.9782 17.727 45.4087 17.3961L48.1983 18.9932C48.7678 19.3241 49.5563 19.2779 50.4258 18.7759C52.1565 17.7767 53.5524 15.3557 53.5468 13.3702C53.5439 12.3795 53.1949 11.6826 52.6318 11.3554Z" fill="#5EC363"/>
<path d="M50.3998 9.55352C51.8079 8.74058 53.0827 8.66454 54.0029 9.19933L51.2133 7.60223C50.2931 7.06744 49.0183 7.14348 47.6102 7.95643C44.8147 9.5704 42.5549 13.4814 42.564 16.6968C42.5731 19.9058 47.4029 24.2745 47.6571 24.5044L50.4467 26.1015C50.1925 25.8716 45.3627 21.5029 45.3536 18.2939C45.3445 15.0785 47.6043 11.1675 50.3998 9.55352Z" fill="#5EC363"/>
<path d="M50.3997 9.55337C53.198 7.93781 55.4698 9.23245 55.4789 12.4478C55.488 15.6569 50.6987 25.5791 50.4466 26.1014C50.1924 25.8714 45.3626 21.5028 45.3535 18.2937C45.3444 15.0783 47.6043 11.1673 50.3997 9.55337ZM50.4259 18.7758C52.1565 17.7766 53.5525 15.3556 53.5468 13.3701C53.5412 11.3783 52.1361 10.5745 50.4055 11.5737C48.6775 12.5713 47.2789 14.9939 47.2845 16.9857C47.2901 18.9712 48.698 19.7735 50.4259 18.7758Z" fill="#78E75A"/>
</svg>
