<svg width="61" height="61" viewBox="0 0 61 61" fill="none" xmlns="http://www.w3.org/2000/svg">
<path d="M5.09177 17.2878H2.04279C0.924827 17.2878 0.0101318 18.2025 0.0101318 19.3205V23.3858C0.0101318 24.5038 0.924827 25.4185 2.04279 25.4185H5.09177C5.65075 25.4185 6.1081 24.9611 6.1081 24.4021V18.3042C6.1081 17.7452 5.65075 17.2878 5.09177 17.2878Z" fill="#0A0F26"/>
<path d="M5.09177 27.4509H2.04279C0.924827 27.4509 0.0101318 28.3656 0.0101318 29.4836V33.5489C0.0101318 34.6669 0.924827 35.5816 2.04279 35.5816H5.09177C5.65075 35.5816 6.1081 35.1242 6.1081 34.5652V28.4673C6.1081 27.9083 5.65075 27.4509 5.09177 27.4509Z" fill="#0A0F26"/>
<path d="M10.1734 12.2061H38.6306C38.9355 12.2061 39.22 12.074 39.4131 11.8301C39.6062 11.5963 39.6875 11.2812 39.6266 10.9865L38.0817 3.27258C37.7057 1.38221 36.0288 0 34.0977 0H14.7062C12.7752 0 11.0982 1.37204 10.7222 3.27258L9.17738 10.9865C9.1164 11.2812 9.19771 11.5963 9.39081 11.8301C9.58391 12.0638 9.86848 12.2061 10.1734 12.2061Z" fill="#60B2F2"/>
<path d="M38.6306 48.7939H10.1734C9.86848 48.7939 9.58391 48.9261 9.39081 49.17C9.19771 49.4037 9.1164 49.7188 9.17738 50.0135L10.7222 57.7275C11.0982 59.6178 12.7752 61 14.7062 61H34.0977C36.0288 61 37.7057 59.628 38.0817 57.7275L39.6266 50.0135C39.6875 49.7188 39.6062 49.4037 39.4131 49.17C39.22 48.9362 38.9355 48.7939 38.6306 48.7939Z" fill="#60B2F2"/>
<path d="M39.6469 10.1733H9.15708C6.35057 10.1733 4.07544 12.4485 4.07544 15.255V45.7448C4.07544 48.5513 6.35057 50.8265 9.15708 50.8265H39.6469C42.4534 50.8265 44.7286 48.5513 44.7286 45.7448V15.255C44.7286 12.4485 42.4534 10.1733 39.6469 10.1733Z" fill="#6B71F2"/>
<path d="M37.6143 14.2388H11.1897C9.50582 14.2388 8.14075 15.6038 8.14075 17.2878V43.7123C8.14075 45.3962 9.50582 46.7613 11.1897 46.7613H37.6143C39.2982 46.7613 40.6632 45.3962 40.6632 43.7123V17.2878C40.6632 15.6038 39.2982 14.2388 37.6143 14.2388Z" fill="white"/>
<path d="M24.402 36.5981C24.402 36.5981 24.3715 36.5981 24.3512 36.5981C23.9345 36.5778 23.5686 36.3034 23.4365 35.907L20.2147 26.2519L18.2227 30.9067C18.0601 31.2827 17.6942 31.5266 17.2877 31.5266H13.2224C12.6634 31.5266 12.2061 31.0693 12.2061 30.5103C12.2061 29.9513 12.6634 29.494 13.2224 29.494H16.6169L19.4017 22.9996C19.5643 22.6134 19.9301 22.3695 20.3773 22.3899C20.794 22.4102 21.1701 22.6846 21.3022 23.081L24.5443 32.7869L27.5424 26.0385C27.6847 25.7132 27.9998 25.4795 28.3555 25.4388C28.7112 25.3982 29.0669 25.5506 29.2804 25.8352L32.0245 29.494H35.5816C36.1406 29.494 36.5979 29.9513 36.5979 30.5103C36.5979 31.0693 36.1406 31.5266 35.5816 31.5266H31.5163C31.2012 31.5266 30.8963 31.3742 30.7032 31.1201L28.6909 28.437L25.3268 35.9985C25.1642 36.3644 24.7984 36.5981 24.402 36.5981Z" fill="#0A0F26"/>
<path d="M58.5608 8.42533C55.3594 5.34585 50.1456 5.34585 46.934 8.42533C46.873 8.48631 46.8121 8.53712 46.7612 8.5981C46.7003 8.53712 46.6393 8.47614 46.5885 8.42533C43.387 5.34585 38.1733 5.34585 34.9617 8.42533C33.3965 9.92949 32.5327 11.9317 32.5327 14.0659C32.5327 16.2002 33.3965 18.2024 34.9617 19.7066L46.06 30.2154C46.2531 30.3983 46.5072 30.4898 46.7612 30.4898C47.0153 30.4898 47.2694 30.3983 47.4625 30.2154L58.5608 19.6964C60.126 18.1922 60.9898 16.1901 60.9898 14.0558C60.9898 11.9215 60.126 9.91933 58.5608 8.41517V8.42533Z" fill="#0FF2B2"/>
</svg>
