<svg width="481" height="219" fill="none" xmlns="http://www.w3.org/2000/svg"><ellipse cx="257.688" cy="109.5" rx="108.906" ry="105.187" transform="rotate(90 257.688 109.5)" fill="url(#paint0_radial_525_268)" fill-opacity=".79" opacity=".7"/><path stroke="#4492DC" stroke-width=".6" d="M252.695 33.851h48.377v49.298h-48.377z"/><path fill="#04254A" stroke="#4492DC" stroke-width=".6" d="M275.271 32.469h3.225v3.225h-3.225zm-23.959 0h3.225v3.225h-3.225zm47.917 0h3.225v3.225h-3.225zm-23.958 48.837h3.225v3.225h-3.225zm-23.959 0h3.225v3.225h-3.225zm0-25.801h3.225v3.225h-3.225zm47.917 25.801h3.225v3.225h-3.225zm0-25.801h3.225v3.225h-3.225z"/><g filter="url(#filter0_d_525_268)"><rect x="128.432" y="50.531" width="152.396" height="123.302" rx="6" fill="#04254A"/><rect x="128.932" y="51.031" width="151.396" height="122.302" rx="5.5" stroke="#4492DC"/></g><path d="M224.4 159.206h43.732a3.7 3.7 0 013.7 3.7v33.438a3.7 3.7 0 01-3.7 3.7H224.4a3.7 3.7 0 01-3.7-3.7v-33.438a3.7 3.7 0 013.7-3.7z" fill="#04254A" stroke="#4492DC" stroke-width=".6"/><path d="M248.505 181.92l3.125-4.821 9.124 14.074h-31.411l12.329-19.018 6.33 9.765.252.388.251-.388zm5.919-14.271c1.833 0 3.324 1.502 3.324 3.36 0 1.859-1.491 3.36-3.324 3.36-1.833 0-3.324-1.501-3.324-3.36 0-1.858 1.491-3.36 3.324-3.36z" stroke="#ADC4FF" stroke-width=".6"/><path d="M107.412 77.794H86c-5.523 0-10-4.477-10-10V56.772m31.412 103.197H86c-5.523 0-10 4.477-10 10v11.023" stroke="#4492DC" stroke-width=".6"/><path d="M86.904 28.477h2.125m-27.119 0h2.125m19.518-8.084l1.502-1.502M65.883 38.063l1.502-1.502" stroke="#4492DC" stroke-width=".6" stroke-miterlimit="10" stroke-linecap="round" stroke-linejoin="round"/><mask id="a" style="mask-type:luminance" maskUnits="userSpaceOnUse" x="57" y="14" width="36" height="36"><path d="M57.938 14.406H93V49.47H57.937V14.406z" fill="#fff"/></mask><g mask="url(#a)"><path d="M75.469 17.045V14.92" stroke="#4492DC" stroke-width=".6" stroke-miterlimit="10" stroke-linecap="round" stroke-linejoin="round"/></g><path d="M67.385 20.393l-1.502-1.502m19.172 19.172l-1.502-1.502" stroke="#4492DC" stroke-width=".6" stroke-miterlimit="10" stroke-linecap="round" stroke-linejoin="round"/><mask id="b" style="mask-type:luminance" maskUnits="userSpaceOnUse" x="57" y="14" width="36" height="36"><path d="M57.938 14.406H93V49.47H57.937V14.406z" fill="#fff"/></mask><g mask="url(#b)" stroke="#4492DC" stroke-width=".6" stroke-miterlimit="10" stroke-linecap="round" stroke-linejoin="round"><path d="M76.931 46.585h-2.928l-.042-.002v.866a1.51 1.51 0 001.506 1.506 1.51 1.51 0 001.506-1.506v-.866l-.042.002z"/><path d="M77.639 41.97h-4.334a1.61 1.61 0 01-.676-.147v3.383c0 .758.62 1.379 1.38 1.379h2.927c.759 0 1.38-.62 1.38-1.38v-3.382a1.621 1.621 0 01-.677.148zm-4.551 2.227h4.764m-2.386-21.494a1.301 1.301 0 000 2.6 1.3 1.3 0 000-2.6zm0 8.947a1.301 1.301 0 000 2.601 1.3 1.3 0 000-2.6zm-3.224-6.536a1.3 1.3 0 10-1.303 2.253 1.3 1.3 0 001.303-2.253zm7.75 4.473a1.3 1.3 0 10-1.3 2.25 1.3 1.3 0 001.3-2.25zm-9.05.001a1.3 1.3 0 101.298 2.252 1.3 1.3 0 00-1.298-2.252zm9.05-2.222a1.3 1.3 0 10-1.298-2.252 1.3 1.3 0 001.298 2.252zm-1.868-1.829l-1.448-.835m2.666 4.612v-1.67m-2.717 4.638l1.497-.865m-5.309 0l1.497.865m-2.718-4.686v1.738m2.652-4.624l-1.488.86m11.138 1.708a8.516 8.516 0 00-7.228-7.228"/><path d="M74.268 20.051c-4.117.587-7.313 4.148-7.313 8.426a8.493 8.493 0 003.14 6.602 4.329 4.329 0 011.577 3.36v1.905c0 .898.729 1.627 1.627 1.627h4.334c.899 0 1.627-.729 1.627-1.627V38.44a4.42 4.42 0 011.624-3.4 8.5 8.5 0 003.01-5.364"/></g><path stroke="#4492DC" stroke-width=".6" d="M221.562 95.156h14.875v8.5h-14.875zm22.313 0h14.875v8.5h-14.875zm-22.313 17h37.516m-37.516 4.849h32.953m-32.953 4.849h24.335m-24.335 4.849h29.404m-29.404 4.849h12.168m-12.168 4.849h23.828m-23.828 4.849h29.404"/><g filter="url(#filter1_d_525_268)"><rect x="121.688" y="89.844" width="85" height="59.5" rx="2" fill="#1D52C7"/><rect x="121.988" y="90.144" width="84.4" height="58.9" rx="1.7" stroke="#4492DC" stroke-width=".6"/></g><path d="M131.533 119.877a.4.4 0 000-.566l-2.546-2.546a.4.4 0 10-.565.566l2.262 2.263-2.262 2.262a.399.399 0 10.565.566l2.546-2.545zm-49.158.117h48.875v-.8H82.375v.8z" fill="#3CC065"/><path d="M35.53 159.116a2.575 2.575 0 100-5.15 2.575 2.575 0 000 5.15z" stroke="#4492DC"/><path d="M29.736 164.909a5.769 5.769 0 015.793-5.793 5.769 5.769 0 015.793 5.793" stroke="#4492DC"/><path d="M35.531 170.594c6.162 0 11.157-4.995 11.157-11.157 0-6.161-4.995-11.156-11.157-11.156-6.161 0-11.156 4.995-11.156 11.156 0 6.162 4.995 11.157 11.156 11.157z" stroke="#4492DC"/><path d="M320.283 120.283a.4.4 0 000-.566l-2.546-2.545a.398.398 0 00-.565 0 .398.398 0 000 .565l2.262 2.263-2.262 2.263a.398.398 0 000 .565.398.398 0 00.565 0l2.546-2.545zM274 120.4h46v-.8h-46v.8z" fill="#3CC065"/><path d="M147.891 112.496h1.268v6.934c0 .716-.169 1.355-.506 1.918-.334.559-.806 1-1.417 1.324-.61.321-1.326.481-2.147.481-.822 0-1.538-.16-2.148-.481a3.588 3.588 0 01-1.422-1.324c-.334-.563-.501-1.202-.501-1.918v-6.934h1.268v6.832c0 .511.113.966.338 1.365.225.396.545.708.961.936.42.225.921.337 1.504.337s1.084-.112 1.503-.337c.419-.228.74-.54.961-.936a2.73 2.73 0 00.338-1.365v-6.832zm6.509 0v10.473h-1.268v-10.473h1.268zm7.521-.491l-3.375 12.539h-1.104l3.375-12.539h1.104zm9.907.491h1.268v6.934c0 .716-.168 1.355-.506 1.918-.334.559-.806 1-1.416 1.324-.611.321-1.327.481-2.148.481-.822 0-1.538-.16-2.148-.481a3.578 3.578 0 01-1.421-1.324c-.335-.563-.502-1.202-.502-1.918v-6.934h1.269v6.832c0 .511.112.966.337 1.365.225.396.546.708.961.936.42.225.921.337 1.504.337s1.084-.112 1.503-.337c.42-.228.74-.54.962-.936a2.73 2.73 0 00.337-1.365v-6.832zm5.854 0l2.7 4.357h.082l2.7-4.357h1.493l-3.293 5.236 3.293 5.237h-1.493l-2.7-4.275h-.082l-2.7 4.275h-1.493l3.375-5.237-3.375-5.236h1.493z" fill="#ADC4FF"/><path stroke="#4492DC" stroke-width=".6" d="M129.818 75.168h149.625"/><circle cx="142.286" cy="63.646" r="2.771" fill="#4492DC"/><circle cx="151.984" cy="63.646" r="2.771" fill="#4492DC"/><circle cx="161.683" cy="63.646" r="2.771" fill="#4492DC"/><path d="M380.946 145.094v-.4.4zm54.899-25.783a.399.399 0 010 .566l-2.545 2.545a.4.4 0 01-.566-.566l2.263-2.262-2.263-2.263a.4.4 0 01.566-.566l2.545 2.546zm-27.952 10.283h.4-.4zm-10 15.9h-16.947v-.8h16.947v.8zm-16.947 0h-3.821v-.8h3.821v.8zm26.547-10.4v-5.5h.8v5.5h-.8zm10.4-15.9h17.669v.8h-17.669v-.8zm-10.4 10.4c0-5.744 4.656-10.4 10.4-10.4v.8a9.6 9.6 0 00-9.6 9.6h-.8zm-9.6 15.1a9.6 9.6 0 009.6-9.6h.8c0 5.743-4.657 10.4-10.4 10.4v-.8z" fill="#3CC065"/><g opacity=".5" filter="url(#filter2_d_525_268)"><rect x="442" y="78" width="35.063" height="68" rx="6" fill="#1D52C7"/><rect x="442.5" y="78.5" width="34.063" height="67" rx="5.5" stroke="#4492DC"/></g><path d="M380.946 82.406v.4-.4zm-4.104-.283a.4.4 0 000 .566l2.546 2.546a.4.4 0 10.565-.566l-2.262-2.263 2.262-2.262a.4.4 0 10-.565-.566l-2.546 2.545zm31.051 10.283h.4-.4zm-10-10.4h-16.947v.8h16.947v-.8zm-16.947 0h-3.821v.8h3.821v-.8zm26.547 10.4v6.563h.8v-6.563h-.8zm10.4 16.963h17.669v-.8h-17.669v.8zm-10.4-10.4c0 5.744 4.656 10.4 10.4 10.4v-.8a9.6 9.6 0 01-9.6-9.6h-.8zm-9.6-16.163a9.6 9.6 0 019.6 9.6h.8c0-5.743-4.657-10.4-10.4-10.4v.8z" fill="#3CC065"/><path d="M336.088 153.951v2.821c0 2.523 2.078 4.453 4.453 4.453h38.597c2.523 0 4.453-2.078 4.453-4.453V73.5m-35.314 31.693h22.543" stroke="#4492DC" stroke-width=".6"/><path stroke="#4492DC" stroke-width=".6" d="M348 87h24v13h-24zm.277 23.042h16.647m-16.647 4.849h20.116m-20.116 4.849h8.324m-8.324 4.849h16.301"/><path d="M383.591 74.235v-1.188c0-2.523-2.078-4.453-4.453-4.453h-38.597c-2.523 0-4.453 2.078-4.453 4.453v61.606m21.529-58.933h4.454m-14.454 78.38h24.454" stroke="#4492DC" stroke-width=".6"/><path d="M339.205 147.419l2.672 2.227-2.078 3.86-3.415-1.188c-1.633 1.633-3.562 2.821-5.789 3.414l-.594 3.563h-4.453l-.594-3.563c-2.227-.593-4.305-1.781-5.79-3.414l-3.562 1.188-2.227-3.86 2.672-2.227c-.297-1.039-.445-2.226-.445-3.414 0-1.188.148-2.375.445-3.414l-2.672-2.227 2.227-3.86 3.414 1.188c1.633-1.633 3.563-2.821 5.789-3.414l.594-3.563h4.454l.593 3.563c2.227.593 4.305 1.781 5.79 3.414l3.414-1.188 2.227 3.86-2.672 2.227c.297 1.039.445 2.226.445 3.414.149 1.188-.148 2.375-.445 3.414z" stroke="#4492DC" stroke-width=".6"/><path d="M327.776 148.458a4.453 4.453 0 100-8.906 4.453 4.453 0 100 8.906zM93.44 196.923a6.97 6.97 0 01-6.977 6.977H64.79c-3.266 0-5.79-2.672-5.79-5.79 0-3.117 2.524-5.789 5.79-5.789.742 0 1.484.148 2.078.445 1.039-3.563 4.453-6.235 8.313-6.235a8.62 8.62 0 017.57 4.454c1.04-.594 2.376-1.039 3.712-1.039a6.969 6.969 0 016.977 6.977z" stroke="#4492DC" stroke-width=".6"/><g clip-path="url(#clip0_525_268)"><path d="M39.09 96.367H26.3a.47.47 0 110-.94h12.79a.47.47 0 110 .94zm-1.177 5.975H27.195a.47.47 0 00-.47.47v10.718c0 .26.21.47.47.47h10.718c.26 0 .47-.21.47-.47v-10.718a.47.47 0 00-.47-.47zm-6.024 5.829l-4.224 4.224v-8.448l4.224 4.224zm-3.56-4.889h8.449l-4.224 4.224-4.224-4.224zm4.225 5.554l4.224 4.224H28.33l4.224-4.224zm.664-.665l4.225-4.224v8.448l-4.224-4.224zm8.079 8.273H27.195a.47.47 0 00-.47.47v10.718c0 .26.21.47.47.47h14.102c.26 0 .47-.21.47-.47v-10.718a.47.47 0 00-.47-.47zm-7.828 5.829l-5.804 4.412v-8.823l5.804 4.411zm-4.879-4.888h11.312l-5.656 4.298-5.656-4.298zm5.656 5.479l5.656 4.298H28.59l5.656-4.298zm6.581 3.821l-5.804-4.412 5.804-4.411v8.823zm1.325 5.382h-.672a.47.47 0 110-.94h.672a.47.47 0 010 .94zm-2.928 0h-8.96a.472.472 0 01-.346-.151l-.52-.565-.52.565a.472.472 0 01-.346.151h-1.337a.47.47 0 110-.94h1.131l.726-.788c.128-.178.413-.303.692 0l.726.788h8.754a.47.47 0 010 .94z" fill="#4492DC"/><path opacity=".5" d="M46.22 135.5h-.423l-.24-.349c.19.161.415.282.662.349zm-.579-31.624c-.099.074-.19.158-.27.251l.121-.251h.149z" fill="#0A1E52" stroke="#4492DC"/><path d="M61.77 112.579h-3.759a.47.47 0 01-.47-.47v-3.938c0-.26.21-.47.47-.47h3.76c.259 0 .47.21.47.47v3.938a.47.47 0 01-.47.47zm-3.289-.941H61.3v-2.997h-2.819v2.997zm-5.021.941H49.7a.47.47 0 01-.47-.47v-3.938c0-.26.211-.47.47-.47h3.76c.26 0 .47.21.47.47v3.938a.47.47 0 01-.47.47zm-3.29-.941h2.82v-2.997h-2.82v2.997zm11.6 8.631H49.736a.47.47 0 01-.47-.471v-3.937c0-.26.21-.47.47-.47H61.77c.26 0 .47.21.47.47v3.937a.47.47 0 01-.47.471zm-11.564-.941H61.3v-2.997H50.206v2.997zm4.231 10.373h-4.701a.47.47 0 01-.47-.47v-5.664c0-.26.21-.47.47-.47h4.7c.26 0 .47.21.47.47v5.664a.47.47 0 01-.47.47zm-4.231-.94h3.76v-4.724h-3.76v4.724zm10.718-1.892h-3.427a.47.47 0 010-.94h3.427a.47.47 0 110 .94zm0-2.625h-3.427a.47.47 0 010-.94h3.427a.47.47 0 110 .94zm0 5.25h-3.427a.47.47 0 010-.94h3.427a.47.47 0 110 .94z" fill="#4492DC"/></g><path d="M2.484 106.844H12.58c.89 0 1.484.594 1.484 1.484v48.691c0 .891-.593 1.485-1.484 1.485H2.484c-.89 0-1.484-.594-1.484-1.485v-48.691c0-.742.594-1.484 1.484-1.484zm11.428 4.75h-3.117m3.117 9.353h-3.117m3.117-4.603h-3.117m3.117 9.353h-3.117m3.117 4.75h-3.117m3.117 4.602h-3.117m3.117 4.75h-3.117m3.117 4.751h-3.117m3.117 4.601h-3.117m3.117 4.751h-3.117" stroke="#4492DC" stroke-width=".6"/><path d="M330.312 22.168h-16.675c-.94 0-1.762.822-1.762 1.762v9.981c0 .94.822 1.762 1.762 1.762h1.056v3.17l3.171-3.17h12.448c.94 0 1.762-.822 1.762-1.762V23.93c-.118-1.056-.822-1.761-1.762-1.761z" fill="#1D52C7"/><path d="M319.744 22.168v-3.875c0-.94.822-1.762 1.762-1.762h16.558c.94 0 1.762.822 1.762 1.762v9.982c0 .94-.822 1.761-1.762 1.761h-1.057v3.171l-3.171-3.17h-1.879" stroke="#4492DC" stroke-width=".6"/><path d="M459.202 122.404c5.634 0 10.202-4.568 10.202-10.202S464.836 102 459.202 102 449 106.568 449 112.202s4.568 10.202 10.202 10.202z" stroke="#ADC4FF" stroke-width=".6"/><path d="M454.879 113.239l2.248 2.248 6.398-6.57" stroke="#ADC4FF" stroke-width=".6"/><path d="M289.577 198.412a.272.272 0 00-.515.121v8.809a.27.27 0 00.162.249 1.09 1.09 0 01.631 1.218 1.085 1.085 0 01-1.065.866 1.086 1.086 0 01-.965-1.587 1.09 1.09 0 01.532-.497.27.27 0 00.161-.249v-8.809a.27.27 0 00-.209-.264.273.273 0 00-.306.143l-5.164 10.328a.273.273 0 000 .243l2.25 4.499h-.919a.272.272 0 00-.272.272v1.631a.27.27 0 00.272.272h.543v2.446a.272.272 0 00.544 0v-2.446h7.067v2.446a.27.27 0 10.543 0v-2.446h.544a.272.272 0 00.272-.272v-1.631a.272.272 0 00-.272-.272h-.919l2.249-4.499a.266.266 0 000-.243l-5.164-10.328zm3.562 16.701h-8.698v-1.087h8.698v1.087zm-1.255-1.631h-6.187l-2.311-4.62 4.589-9.177v7.492a1.626 1.626 0 00-.178 2.706 1.635 1.635 0 001.986 0 1.632 1.632 0 00-.177-2.706v-7.492l4.588 9.177-2.31 4.62z" fill="#4492DC"/><path d="M298.302 204.513h-.55a8.914 8.914 0 00-5.871-8.154h4.557a1.086 1.086 0 101.868-.99 1.085 1.085 0 00-1.868.446h-6.562v-.543a.27.27 0 00-.272-.272h-1.63a.272.272 0 00-.272.272v.543h-6.562a1.09 1.09 0 00-1.19-.806 1.086 1.086 0 00-.679 1.797 1.086 1.086 0 001.869-.447h4.557a8.914 8.914 0 00-5.871 8.154h-.55a.272.272 0 00-.272.272v1.631a.272.272 0 00.272.272h1.631a.272.272 0 00.271-.272v-1.631a.27.27 0 00-.271-.272h-.538a8.377 8.377 0 017.333-8.082v.472a.27.27 0 00.272.271h1.63a.27.27 0 00.272-.271v-.472a8.371 8.371 0 017.332 8.082h-.537a.272.272 0 00-.272.272v1.631a.272.272 0 00.272.272h1.631a.272.272 0 00.272-.272v-1.631a.272.272 0 00-.272-.272zm-17.667 1.631h-1.087v-1.087h1.087v1.087zm16.852-10.6a.544.544 0 11.002 1.087.544.544 0 01-.002-1.087zm-17.396 1.087a.545.545 0 11.002-1.09.545.545 0 01-.002 1.09zm9.242 0h-1.088v-1.087h1.088v1.087zm8.697 9.513h-1.087v-1.087h1.087v1.087z" fill="#4492DC"/><defs><filter id="filter0_d_525_268" x="128.432" y="50.531" width="155.396" height="130.302" filterUnits="userSpaceOnUse" color-interpolation-filters="sRGB"><feFlood flood-opacity="0" result="BackgroundImageFix"/><feColorMatrix in="SourceAlpha" values="0 0 0 0 0 0 0 0 0 0 0 0 0 0 0 0 0 0 127 0" result="hardAlpha"/><feOffset dx="3" dy="7"/><feComposite in2="hardAlpha" operator="out"/><feColorMatrix values="0 0 0 0 0 0 0 0 0 0 0 0 0 0 0 0 0 0 0.25 0"/><feBlend in2="BackgroundImageFix" result="effect1_dropShadow_525_268"/><feBlend in="SourceGraphic" in2="effect1_dropShadow_525_268" result="shape"/></filter><filter id="filter1_d_525_268" x="121.688" y="89.844" width="85" height="66.5" filterUnits="userSpaceOnUse" color-interpolation-filters="sRGB"><feFlood flood-opacity="0" result="BackgroundImageFix"/><feColorMatrix in="SourceAlpha" values="0 0 0 0 0 0 0 0 0 0 0 0 0 0 0 0 0 0 127 0" result="hardAlpha"/><feOffset dy="7"/><feComposite in2="hardAlpha" operator="out"/><feColorMatrix values="0 0 0 0 0 0 0 0 0 0 0 0 0 0 0 0 0 0 0.1 0"/><feBlend in2="BackgroundImageFix" result="effect1_dropShadow_525_268"/><feBlend in="SourceGraphic" in2="effect1_dropShadow_525_268" result="shape"/></filter><filter id="filter2_d_525_268" x="442" y="78" width="38.063" height="75" filterUnits="userSpaceOnUse" color-interpolation-filters="sRGB"><feFlood flood-opacity="0" result="BackgroundImageFix"/><feColorMatrix in="SourceAlpha" values="0 0 0 0 0 0 0 0 0 0 0 0 0 0 0 0 0 0 127 0" result="hardAlpha"/><feOffset dx="3" dy="7"/><feComposite in2="hardAlpha" operator="out"/><feColorMatrix values="0 0 0 0 0 0 0 0 0 0 0 0 0 0 0 0 0 0 0.25 0"/><feBlend in2="BackgroundImageFix" result="effect1_dropShadow_525_268"/><feBlend in="SourceGraphic" in2="effect1_dropShadow_525_268" result="shape"/></filter><radialGradient id="paint0_radial_525_268" cx="0" cy="0" r="1" gradientUnits="userSpaceOnUse" gradientTransform="matrix(108.906 0 0 105.187 257.688 109.5)"><stop stop-color="#3747AC"/><stop offset="1" stop-color="#04254A" stop-opacity=".6"/></radialGradient><clipPath id="clip0_525_268"><path fill="#fff" transform="translate(23 92)" d="M0 0h44v44H0z"/></clipPath></defs></svg>