<?xml version="1.0" ?>
<!-- Uploaded to: SVG Repo, www.svgrepo.com, Generator: SVG Repo Mixer Tools -->
<svg fill="#000000" width="800px" height="800px" viewBox="0 0 512 512" version="1.1" xml:space="preserve" xmlns="http://www.w3.org/2000/svg" xmlns:xlink="http://www.w3.org/1999/xlink">
<g id="_x31_2_x2C__gear_x2C__ios_x2C__mobile_x2C__optimization_x2C__seo">
<g id="XMLID_858_">
<g id="XMLID_875_">
<g id="XMLID_159_">
<path d="M256,212.006c-33.084,0-60-26.916-60-60s26.916-60,60-60s60,26.916,60,60S289.084,212.006,256,212.006z       M256,102.006c-27.57,0-50,22.43-50,50s22.43,50,50,50s50-22.43,50-50S283.57,102.006,256,102.006z" id="XMLID_621_"/>
</g>
<g id="XMLID_158_">
<path d="M276.005,167.007c-1.616,0-3.201-0.782-4.165-2.227c-1.532-2.297-0.911-5.402,1.387-6.934l8.76-5.84      l-8.76-5.84c-2.298-1.532-2.919-4.636-1.387-6.934c1.53-2.298,4.636-2.919,6.934-1.387l15,10      c1.391,0.927,2.227,2.488,2.227,4.16s-0.836,3.233-2.227,4.16l-15,10C277.921,166.735,276.958,167.007,276.005,167.007z" id="XMLID_620_"/>
</g>
<g id="XMLID_157_">
<path d="M235.996,167.007c-0.953,0-1.917-0.272-2.769-0.84l-15-10c-1.391-0.927-2.227-2.488-2.227-4.16      s0.835-3.233,2.227-4.16l15-10c2.296-1.532,5.402-0.911,6.934,1.387c1.532,2.297,0.911,5.402-1.387,6.934l-8.76,5.84l8.76,5.84      c2.298,1.532,2.918,4.636,1.387,6.934C239.197,166.225,237.611,167.007,235.996,167.007z" id="XMLID_619_"/>
</g>
<g id="XMLID_156_">
<path d="M246,187.008c-0.524,0-1.057-0.083-1.582-0.258c-2.62-0.874-4.036-3.705-3.163-6.325l20-60      c0.874-2.62,3.708-4.033,6.324-3.163c2.62,0.874,4.035,3.705,3.162,6.325l-20,60C250.045,185.683,248.094,187.008,246,187.008z" id="XMLID_618_"/>
</g>
<g id="XMLID_155_">
<path d="M262.421,381H249.58c-2.341,0-4.369-1.625-4.88-3.91l-3.611-16.165      c-3.896-1.117-7.656-2.677-11.236-4.659l-14.024,8.879c-1.977,1.25-4.556,0.966-6.21-0.689l-9.071-9.071      c-1.654-1.653-1.94-4.233-0.689-6.21l8.876-14.019c-1.979-3.563-3.537-7.324-4.657-11.241l-16.165-3.61      c-2.285-0.511-3.91-2.538-3.91-4.88v-12.841c0-2.342,1.625-4.369,3.91-4.88l16.166-3.61c1.117-3.896,2.676-7.657,4.659-11.236      l-8.879-14.024c-1.251-1.977-0.965-4.557,0.689-6.21l9.071-9.071c1.657-1.656,4.239-1.94,6.215-0.686l14.015,8.897      c3.541-1.97,7.301-3.532,11.238-4.669l3.613-16.177c0.511-2.285,2.539-3.91,4.88-3.91h12.841c2.342,0,4.369,1.625,4.88,3.91      l3.613,16.177c3.937,1.137,7.696,2.699,11.237,4.669l14.015-8.897c1.977-1.255,4.56-0.971,6.215,0.686l9.071,9.07      c1.654,1.654,1.94,4.234,0.689,6.211l-8.879,14.024c1.982,3.579,3.541,7.34,4.658,11.235l16.166,3.611      c2.285,0.511,3.91,2.538,3.91,4.88v12.841c0,2.342-1.625,4.369-3.91,4.88l-16.166,3.611c-1.117,3.896-2.676,7.655-4.659,11.234      l8.88,14.024c1.251,1.977,0.965,4.557-0.689,6.21l-9.071,9.071c-1.652,1.655-4.232,1.942-6.21,0.689l-14.02-8.876      c-3.562,1.979-7.323,3.537-11.24,4.657l-3.61,16.164C266.79,379.375,264.763,381,262.421,381z M253.586,371h4.828l3.407-15.252      c0.423-1.893,1.902-3.37,3.795-3.791c4.96-1.103,9.647-3.044,13.934-5.771c1.633-1.041,3.721-1.043,5.359-0.007l13.23,8.376      l3.412-3.412l-8.376-13.229c-1.033-1.633-1.034-3.714-0.002-5.347c2.742-4.336,4.687-9.028,5.78-13.947      c0.421-1.894,1.898-3.372,3.791-3.795l15.252-3.407v-4.827l-15.252-3.407c-1.893-0.423-3.37-1.901-3.791-3.795      c-1.094-4.92-3.038-9.612-5.779-13.946c-1.033-1.633-1.032-3.715,0.001-5.348l8.376-13.23l-3.408-3.408l-13.229,8.398      c-1.64,1.04-3.735,1.038-5.371-0.008c-4.243-2.71-8.937-4.662-13.95-5.801c-1.882-0.428-3.351-1.901-3.771-3.786l-3.407-15.252      h-4.828l-3.407,15.252c-0.421,1.885-1.889,3.358-3.772,3.786c-5.013,1.139-9.707,3.091-13.951,5.801      c-1.638,1.046-3.732,1.047-5.371,0.008l-13.229-8.398l-3.409,3.408l8.376,13.23c1.034,1.633,1.034,3.715,0.001,5.348      c-2.742,4.334-4.686,9.026-5.779,13.945c-0.42,1.894-1.898,3.373-3.791,3.796l-15.252,3.407v4.827l15.252,3.407      c1.893,0.423,3.371,1.902,3.791,3.795c1.102,4.959,3.044,9.647,5.772,13.935c1.04,1.635,1.042,3.723,0.006,5.359l-8.376,13.229      l3.412,3.412l13.23-8.376c1.633-1.033,3.714-1.035,5.348-0.001c4.334,2.742,9.026,4.687,13.946,5.779      c1.893,0.421,3.373,1.898,3.795,3.791L253.586,371z" id="XMLID_615_"/>
</g>
<g id="XMLID_154_">
<path d="M256.025,336.858c-15.373,0-27.88-12.484-27.88-27.83c0-15.373,12.507-27.88,27.88-27.88      c15.346,0,27.83,12.507,27.83,27.88C283.855,324.374,271.371,336.858,256.025,336.858z M256.025,291.148      c-9.859,0-17.88,8.021-17.88,17.88c0,9.831,8.021,17.83,17.88,17.83c9.831,0,17.83-7.999,17.83-17.83      C273.855,299.169,265.856,291.148,256.025,291.148z" id="XMLID_612_"/>
</g>
</g>
<g id="XMLID_153_">
<path d="M355.5,491h-199c-27.846,0-50.5-22.654-50.5-50.5v-369c0-27.846,22.654-50.5,50.5-50.5h199     c27.846,0,50.5,22.654,50.5,50.5v369C406,468.346,383.346,491,355.5,491z M156.5,31C134.168,31,116,49.168,116,71.5v369     c0,22.332,18.168,40.5,40.5,40.5h199c22.332,0,40.5-18.168,40.5-40.5v-369c0-22.332-18.168-40.5-40.5-40.5H156.5z" id="XMLID_609_"/>
</g>
<g id="XMLID_152_">
<path d="M366,421H146c-2.761,0-5-2.238-5-5V66c0-2.761,2.239-5,5-5h220c2.762,0,5,2.239,5,5v350     C371,418.762,368.762,421,366,421z M151,411h210V71H151V411z" id="XMLID_606_"/>
</g>
<g id="XMLID_151_">
<path d="M276,466h-40c-8.271,0-15-6.729-15-15s6.729-15,15-15h40c8.271,0,15,6.729,15,15S284.271,466,276,466z      M236,446c-2.757,0-5,2.243-5,5s2.243,5,5,5h40c2.757,0,5-2.243,5-5s-2.243-5-5-5H236z" id="XMLID_603_"/>
</g>
<g id="XMLID_150_">
<path d="M346,456h-30c-2.762,0-5-2.238-5-5s2.238-5,5-5h30c2.762,0,5,2.238,5,5S348.762,456,346,456z" id="XMLID_602_"/>
</g>
<g id="XMLID_149_">
<path d="M196,456h-30c-2.761,0-5-2.238-5-5s2.239-5,5-5h30c2.761,0,5,2.238,5,5S198.761,456,196,456z" id="XMLID_601_"/>
</g>
</g>
</g>
<g id="Layer_1"/>
</svg>